<svg width="24" height="24" viewBox="0 0 24 24" fill="none" xmlns="http://www.w3.org/2000/svg">
<path fill-rule="evenodd" clip-rule="evenodd" d="M5 18C5 18.3008 5.10727 18.5689 5.26811 18.7498C5.42554 18.927 5.61205 19 5.77778 19H18.2222C18.3879 19 18.5745 18.927 18.7319 18.7498C18.8927 18.5689 19 18.3008 19 18V14C19 13.4477 19.4477 13 20 13C20.5523 13 21 13.4477 21 14V18C21 18.7601 20.7327 19.5094 20.2267 20.0786C19.7173 20.6516 18.9995 21 18.2222 21H5.77778C5.00051 21 4.28265 20.6516 3.77329 20.0786C3.26733 19.5094 3 18.7601 3 18L3 14C3 13.4477 3.44772 13 4 13C4.55228 13 5 13.4477 5 14V18Z" fill="black"/>
<path fill-rule="evenodd" clip-rule="evenodd" d="M17.7071 10.2929C18.0976 10.6834 18.0976 11.3166 17.7071 11.7071L12.7071 16.7071C12.3166 17.0976 11.6834 17.0976 11.2929 16.7071L6.29289 11.7071C5.90237 11.3166 5.90237 10.6834 6.29289 10.2929C6.68342 9.90237 7.31658 9.90237 7.70711 10.2929L12 14.5858L16.2929 10.2929C16.6834 9.90237 17.3166 9.90237 17.7071 10.2929Z" fill="black"/>
<path fill-rule="evenodd" clip-rule="evenodd" d="M12 3C12.5523 3 13 3.44772 13 4L13 16C13 16.5523 12.5523 17 12 17C11.4477 17 11 16.5523 11 16L11 4C11 3.44772 11.4477 3 12 3Z" fill="black"/>
</svg>
