<svg xmlns="http://www.w3.org/2000/svg" width="24" height="24" fill="none" viewBox="0 0 24 24">
    <path fill="#fff" fill-rule="evenodd" d="M5 18c0 .3.107.569.268.75.158.177.344.25.51.25h12.444c.166 0 .352-.073.51-.25.16-.181.268-.45.268-.75v-4c0-.552.448-1 1-1s1 .448 1 1v4c0 .76-.267 1.51-.773 2.079-.51.573-1.227.921-2.005.921H5.778c-.777 0-1.495-.348-2.005-.921C3.267 19.509 3 18.76 3 18v-4c0-.552.448-1 1-1s1 .448 1 1v4zM6.293 9.707c-.39-.39-.39-1.024 0-1.414l5-5c.39-.39 1.024-.39 1.414 0l5 5c.39.39.39 1.024 0 1.414-.39.39-1.024.39-1.414 0L12 5.414 7.707 9.707c-.39.39-1.024.39-1.414 0z" clip-rule="evenodd"/>
    <path fill="#fff" fill-rule="evenodd" d="M12 17c-.552 0-1-.448-1-1V4c0-.552.448-1 1-1s1 .448 1 1v12c0 .552-.448 1-1 1z" clip-rule="evenodd"/>
</svg>
