<svg width="200" height="200" viewBox="0 0 200 200" fill="none" xmlns="http://www.w3.org/2000/svg">
<rect width="200" height="200" fill="#654EFF"/>
<g filter="url(#filter0_d)">
<path d="M37.529 115.672C34.7831 115.672 32.2333 115.405 29.8797 114.87C27.526 114.335 25.6182 113.657 24.1561 112.837C23.4428 112.373 22.8901 111.803 22.4978 111.125C22.1412 110.412 21.9629 109.681 21.9629 108.932C21.9629 107.934 22.266 107.06 22.8723 106.311C23.4785 105.562 24.2809 105.188 25.2794 105.188C26.0996 105.188 26.9376 105.437 27.7935 105.937C28.9347 106.507 30.3968 107.024 32.1798 107.488C33.9985 107.916 35.9242 108.13 37.9569 108.13C39.9896 108.13 41.5409 107.862 42.6107 107.327C43.6806 106.792 44.2155 106.008 44.2155 104.974C44.2155 103.868 43.6271 103.012 42.4502 102.406C41.2734 101.764 39.4547 101.087 36.9941 100.373C34.3552 99.5889 32.1977 98.8222 30.5216 98.0733C28.8455 97.3244 27.4012 96.2189 26.1887 94.7568C24.9763 93.2591 24.37 91.3334 24.37 88.9797C24.37 86.5904 25.0298 84.4864 26.3492 82.6677C27.7043 80.849 29.6122 79.4582 32.0728 78.4953C34.5335 77.4968 37.4042 76.9976 40.685 76.9976C43.3596 76.9976 45.8202 77.3007 48.0669 77.9069C50.3492 78.4775 52.1323 79.262 53.4161 80.2606C54.4859 81.0808 55.0208 82.1684 55.0208 83.5236C55.0208 84.5577 54.682 85.4671 54.0045 86.2516C53.3626 87.0005 52.5245 87.375 51.4904 87.375C50.5988 87.375 49.743 87.1075 48.9228 86.5726C47.8173 86.0377 46.5156 85.5741 45.0179 85.1818C43.5201 84.7539 41.9867 84.5399 40.4176 84.5399C38.4919 84.5399 36.9584 84.8608 35.8173 85.5027C34.7118 86.109 34.159 86.9649 34.159 88.0704C34.159 89.2115 34.7296 90.0852 35.8708 90.6915C37.0476 91.2977 38.902 91.9753 41.4339 92.7241C44.0372 93.5087 46.159 94.2754 47.7994 95.0243C49.4755 95.7375 50.9198 96.8073 52.1323 98.2338C53.3447 99.6602 53.951 101.532 53.951 103.85C53.951 107.631 52.5245 110.555 49.6716 112.623C46.8187 114.656 42.7712 115.672 37.529 115.672Z" fill="url(#paint0_linear)"/>
<path d="M75.2056 108.611C75.8119 108.611 76.3111 108.879 76.7034 109.414C77.0957 109.948 77.2918 110.644 77.2918 111.5C77.2918 113.033 76.7925 114.103 75.794 114.709C74.8312 115.316 73.1373 115.619 70.7123 115.619C67.3958 115.619 64.8639 114.816 63.1165 113.211C61.3691 111.571 60.4954 109.2 60.4954 106.097C60.4954 105.384 60.5132 104.849 60.5489 104.492L61.2443 95.8802H59.693C58.4092 95.8802 57.4107 95.5949 56.6974 95.0243C55.9842 94.4537 55.6276 93.6335 55.6276 92.5637C55.6276 90.103 57.1789 88.8727 60.2814 88.8727H61.8327L62.1001 85.3958C62.2071 84.005 62.7242 82.9173 63.6514 82.1328C64.5786 81.3482 65.7732 80.9559 67.2353 80.9559C68.6974 80.9559 69.8208 81.3482 70.6053 82.1328C71.3899 82.9173 71.7286 83.9871 71.6217 85.3423L71.3542 88.8727H74.2428C75.4909 88.8727 76.4538 89.158 77.1313 89.7286C77.8445 90.2992 78.2012 91.1016 78.2012 92.1357C78.2012 93.4195 77.8267 94.3646 77.0778 94.9708C76.3646 95.577 75.2234 95.8802 73.6544 95.8802H70.7658L70.0704 104.546C70.0347 104.76 70.0169 105.045 70.0169 105.402C70.0169 107.648 70.9976 108.772 72.959 108.772L74.0288 108.718C74.5994 108.647 74.9916 108.611 75.2056 108.611Z" fill="url(#paint1_linear)"/>
<path d="M83.8324 115.512C82.4773 115.512 81.354 115.137 80.4624 114.388C79.6066 113.639 79.2321 112.552 79.3391 111.125L80.8369 92.7776C80.9795 91.3155 81.5323 90.21 82.4951 89.4611C83.458 88.7123 84.617 88.3378 85.9721 88.3378C87.3272 88.3378 88.4327 88.7123 89.2886 89.4611C90.1444 90.21 90.5011 91.3155 90.3584 92.7776L88.8606 111.125C88.7537 112.552 88.2187 113.639 87.2559 114.388C86.3287 115.137 85.1875 115.512 83.8324 115.512ZM86.614 84.5934C85.0092 84.5934 83.7254 84.1833 82.7626 83.3631C81.8354 82.5072 81.3718 81.3839 81.3718 79.9931C81.3718 78.6023 81.8354 77.4968 82.7626 76.6766C83.7254 75.8564 85.0092 75.4463 86.614 75.4463C88.1831 75.4463 89.4491 75.8564 90.4119 76.6766C91.3748 77.4968 91.8562 78.6023 91.8562 79.9931C91.8562 81.3839 91.3748 82.5072 90.4119 83.3631C89.4847 84.1833 88.2187 84.5934 86.614 84.5934Z" fill="url(#paint2_linear)"/>
<path d="M108.345 115.619C105.456 115.619 102.925 115.102 100.749 114.067C98.5739 112.998 96.88 111.5 95.6675 109.574C94.4906 107.613 93.9022 105.33 93.9022 102.727C93.9022 99.7672 94.5085 97.1996 95.721 95.0243C96.9691 92.8133 98.7343 91.1372 101.017 89.9961C103.335 88.8192 106.045 88.2308 109.147 88.2308C110.859 88.2308 112.446 88.3913 113.908 88.7123C115.37 89.0332 116.601 89.4611 117.599 89.9961C118.17 90.317 118.598 90.7628 118.883 91.3334C119.168 91.9039 119.311 92.5102 119.311 93.1521C119.311 94.1506 119.026 95.0421 118.455 95.8267C117.92 96.5755 117.225 96.95 116.369 96.95C115.87 96.95 115.37 96.8252 114.871 96.5755C113.088 95.791 111.376 95.3987 109.736 95.3987C107.81 95.3987 106.312 96.0228 105.243 97.2709C104.208 98.4834 103.691 100.231 103.691 102.513C103.691 104.368 104.155 105.83 105.082 106.899C106.009 107.934 107.311 108.451 108.987 108.451C109.914 108.451 110.752 108.379 111.501 108.237C112.25 108.058 113.07 107.791 113.962 107.434C114.532 107.149 115.085 107.006 115.62 107.006C116.404 107.006 117.011 107.31 117.439 107.916C117.902 108.486 118.134 109.2 118.134 110.055C118.134 110.804 117.956 111.535 117.599 112.249C117.278 112.926 116.779 113.461 116.101 113.853C115.174 114.353 113.997 114.781 112.571 115.137C111.144 115.458 109.736 115.619 108.345 115.619Z" fill="url(#paint3_linear)"/>
<path d="M146.752 108.397C147.394 109.146 147.715 109.966 147.715 110.858C147.715 112.07 147.198 113.176 146.164 114.174C145.165 115.137 144.042 115.619 142.794 115.619C141.581 115.619 140.547 115.119 139.691 114.121L131.186 104.011L130.651 111.018C130.544 112.48 130.009 113.586 129.046 114.335C128.084 115.084 126.925 115.458 125.569 115.458C124.214 115.458 123.109 115.102 122.253 114.388C121.397 113.639 121.023 112.534 121.13 111.072L123.483 81.6513C123.59 80.1892 124.107 79.0837 125.034 78.3348C125.997 77.586 127.156 77.2115 128.511 77.2115C129.867 77.2115 130.972 77.586 131.828 78.3348C132.719 79.0481 133.112 80.1357 133.005 81.5978L131.56 99.6781L141.242 89.6751C142.134 88.7479 143.186 88.2843 144.398 88.2843C145.54 88.2843 146.538 88.7123 147.394 89.5681C148.286 90.3883 148.731 91.3512 148.731 92.4567C148.731 93.5622 148.286 94.5429 147.394 95.3987L141.189 101.657L146.752 108.397Z" fill="url(#paint4_linear)"/>
<path d="M170.145 90.9589C170.573 90.0674 171.143 89.4076 171.856 88.9797C172.57 88.5161 173.336 88.2843 174.157 88.2843C175.298 88.2843 176.314 88.6588 177.206 89.4076C178.097 90.1209 178.543 91.0124 178.543 92.0822C178.543 92.6528 178.382 93.2591 178.062 93.901L163.03 122.519C162.531 123.446 161.943 124.124 161.265 124.552C160.588 124.98 159.857 125.194 159.072 125.194C158.038 125.194 157.128 124.819 156.344 124.07C155.595 123.357 155.221 122.466 155.221 121.396C155.221 120.647 155.399 119.916 155.755 119.203L158.537 113.639L151.423 93.7405C151.28 93.4195 151.209 93.0451 151.209 92.6172C151.209 91.4403 151.744 90.424 152.813 89.5681C153.883 88.6766 155.06 88.2308 156.344 88.2308C157.164 88.2308 157.895 88.4626 158.537 88.9262C159.179 89.3542 159.66 90.0139 159.981 90.9054L164.1 103.636L170.145 90.9589Z" fill="url(#paint5_linear)"/>
</g>
<path fill-rule="evenodd" clip-rule="evenodd" d="M21.9748 116.725C21.8904 116.678 21.8075 116.627 21.7263 116.575C20.4772 115.763 19.4129 114.695 18.6397 113.359C18.5942 113.28 18.551 113.2 18.5104 113.119C17.8649 111.828 17.5049 110.418 17.5049 108.932C17.5049 106.953 18.1337 105.08 19.4072 103.506C20.8947 101.669 22.9919 100.73 25.279 100.73C25.61 100.73 25.9356 100.749 26.2554 100.786C24.9523 99.9072 23.7842 98.8411 22.7571 97.6024L22.7237 97.5617C20.7359 95.1061 19.912 92.1211 19.912 88.9798C19.912 85.7135 20.8331 82.6796 22.7407 80.0502C22.7518 80.0348 22.763 80.0196 22.7743 80.0044C24.6997 77.4204 27.3267 75.5703 30.4222 74.3545C33.5179 73.1029 36.9706 72.54 40.6847 72.54C43.6793 72.54 46.5225 72.8776 49.1877 73.5925C51.8037 74.2504 54.2113 75.2358 56.1408 76.733C57.5296 77.8015 58.5083 79.1677 59.0326 80.7285C59.4897 80.0007 60.0658 79.3273 60.7716 78.73C62.6597 77.1324 64.9427 76.4984 67.235 76.4984C69.4896 76.4984 71.8962 77.1201 73.757 78.9809C75.363 80.5868 76.0297 82.583 76.0926 84.5653C76.9427 84.7097 77.803 84.9701 78.6229 85.3967C77.4561 83.8168 76.9138 81.9456 76.9138 79.9932C76.9138 77.5011 77.8009 75.1141 79.8087 73.338C79.8295 73.3196 79.8505 73.3014 79.8716 73.2834C81.8385 71.6078 84.2418 70.9888 86.6136 70.9888C88.9785 70.9888 91.3527 71.6227 93.3022 73.2834C95.3658 75.0413 96.3135 77.4431 96.3135 79.9932C96.3135 82.5432 95.3696 84.9201 93.373 86.6949L93.3651 86.702C93.2645 86.791 93.1627 86.877 93.0597 86.9601C93.6844 87.7076 94.1207 88.5279 94.4055 89.3781C95.7187 88.0181 97.2593 86.8925 99.0106 86.0152C102.061 84.4695 105.483 83.7733 109.147 83.7733C111.135 83.7733 113.047 83.9595 114.864 84.3584C116.215 84.6551 117.507 85.0504 118.697 85.5766L119.037 81.3262C119.037 81.3206 119.038 81.3151 119.038 81.3095C119.216 78.9267 120.138 76.5595 122.233 74.8672C122.254 74.85 122.276 74.8331 122.297 74.8163C124.13 73.3911 126.281 72.754 128.511 72.754C130.699 72.754 132.886 73.3725 134.691 74.9179C136.987 76.8028 137.628 79.4886 137.45 81.9233L137.448 81.9529L136.992 87.6566L138.029 86.5856C138.031 86.5834 138.033 86.5812 138.035 86.579C139.709 84.8412 141.896 83.8268 144.398 83.8268C146.595 83.8268 148.549 84.6253 150.118 86.0139C151.884 84.5951 153.997 83.7733 156.344 83.7733C158.038 83.7733 159.665 84.2642 161.08 85.2652C162.642 86.3315 163.614 87.8381 164.175 89.3957C164.192 89.4413 164.207 89.4872 164.222 89.5334L164.895 91.612L166.126 89.0301C166.848 87.5258 167.937 86.1543 169.493 85.2C170.885 84.3118 172.467 83.8268 174.156 83.8268C176.352 83.8268 178.364 84.5741 180.033 85.9613C181.875 87.4534 183 89.5763 183 92.0824C183 93.5002 182.601 94.7893 182.048 95.8946C182.039 95.9126 182.03 95.9306 182.021 95.9485C182.016 95.9569 182.012 95.9654 182.008 95.9739L166.976 124.592L166.955 124.633C166.203 126.03 165.144 127.374 163.645 128.321C162.271 129.188 160.718 129.651 159.072 129.651C156.832 129.651 154.838 128.794 153.269 127.298C151.603 125.712 150.763 123.638 150.763 121.396C150.763 119.91 151.123 118.5 151.768 117.209L153.699 113.348L148.975 100.136L147.194 101.931L150.168 105.533C151.405 106.991 152.172 108.804 152.172 110.858C152.172 113.503 150.989 115.711 149.26 117.381L149.258 117.383C147.529 119.05 145.329 120.076 142.793 120.076C140.16 120.076 137.928 118.914 136.306 117.022L136.28 116.991L134.298 114.635C133.761 115.845 132.942 116.952 131.783 117.854C129.95 119.279 127.799 119.916 125.569 119.916C123.405 119.916 121.219 119.33 119.399 117.813C119.388 117.804 119.377 117.794 119.366 117.785C119.349 117.771 119.333 117.757 119.317 117.743C119.172 117.616 119.034 117.486 118.902 117.353C118.718 117.479 118.529 117.599 118.334 117.711C118.295 117.734 118.255 117.757 118.214 117.778C116.861 118.507 115.307 119.048 113.652 119.462C113.618 119.47 113.583 119.479 113.549 119.486C111.818 119.876 110.081 120.076 108.345 120.076C104.924 120.076 101.716 119.463 98.8349 118.093C98.8171 118.085 98.7993 118.076 98.7816 118.068C96.4788 116.935 94.5152 115.396 92.9603 113.449C92.4872 115.135 91.5477 116.686 90.025 117.882C88.2039 119.34 86.0464 119.969 83.8321 119.969C81.9066 119.969 80.005 119.492 78.3457 118.369C78.2774 118.414 78.2078 118.458 78.137 118.501C76.0214 119.818 73.2078 120.076 70.7119 120.076C66.7243 120.076 62.9487 119.11 60.1009 116.495L60.0651 116.462C58.447 114.943 57.3782 113.114 56.7508 111.105C55.7353 113.079 54.2503 114.809 52.2878 116.232L52.2579 116.254C48.3593 119.031 43.2627 120.13 37.5286 120.13C34.4949 120.13 31.61 119.835 28.8914 119.217C26.2868 118.625 23.9348 117.824 21.9748 116.725ZM60.5485 104.492C60.5128 104.849 60.495 105.384 60.495 106.097C60.495 109.2 61.3687 111.571 63.1161 113.212C64.8635 114.816 67.3955 115.619 70.7119 115.619C72.8935 115.619 74.4834 115.373 75.4816 114.883C75.593 114.828 75.697 114.77 75.7937 114.709C76.7922 114.103 77.2914 113.033 77.2914 111.5C77.2914 111.316 77.2824 111.139 77.2642 110.97C77.2637 110.965 77.2632 110.961 77.2627 110.956C77.1952 110.345 77.0086 109.83 76.703 109.414C76.3107 108.879 75.8115 108.611 75.2053 108.611C75.1664 108.611 75.1218 108.613 75.0712 108.615C74.8431 108.625 74.4955 108.66 74.0284 108.718L72.9586 108.772C70.9972 108.772 70.0166 107.648 70.0166 105.402C70.0166 105.045 70.0344 104.76 70.07 104.546L70.7654 95.8803H73.654C74.6584 95.8803 75.4875 95.7561 76.1412 95.5077C76.5087 95.368 76.8208 95.1891 77.0775 94.9709C77.741 94.4337 78.1106 93.6306 78.1862 92.5614C78.1872 92.5475 78.1881 92.5335 78.189 92.5195C78.1969 92.3951 78.2008 92.2673 78.2008 92.1359C78.2008 91.1017 77.8442 90.2993 77.131 89.7287C77.0965 89.6997 77.0613 89.6714 77.0254 89.6439C76.6861 89.3838 76.2809 89.1895 75.81 89.061C75.3502 88.9356 74.8277 88.8729 74.2424 88.8729H71.3538L71.6213 85.3424C71.647 85.0169 71.647 84.7078 71.6212 84.4152C71.5398 83.4897 71.201 82.729 70.605 82.1329C69.8204 81.3483 68.6971 80.9561 67.235 80.9561C65.7729 80.9561 64.5782 81.3483 63.651 82.1329C62.7238 82.9174 62.2067 84.0051 62.0998 85.3959L61.8323 88.8729H60.281C57.1785 88.8729 55.6273 90.1032 55.6273 92.5638C55.6273 93.6336 55.9839 94.4538 56.6971 95.0244C57.0019 95.2682 57.3587 95.46 57.7677 95.5996C58.3158 95.7867 58.9574 95.8803 59.6926 95.8803H61.2439L60.5485 104.492ZM54.0041 86.2518C54.6817 85.4672 55.0205 84.5579 55.0205 83.5237C55.0205 82.1686 54.4855 81.0809 53.4157 80.2607C52.1319 79.2622 50.3488 78.4776 48.0665 77.907C45.8199 77.3008 43.3592 76.9977 40.6847 76.9977C37.4038 76.9977 34.5331 77.4969 32.0725 78.4955C29.6119 79.4583 27.704 80.8491 26.3489 82.6678C25.0294 84.4865 24.3697 86.5905 24.3697 88.9798C24.3697 91.3335 24.9759 93.2592 26.1884 94.757C27.4009 96.2191 28.8451 97.3246 30.5212 98.0734C32.1973 98.8223 34.3548 99.589 36.9937 100.374C39.4543 101.087 41.2731 101.764 42.4499 102.406C43.6267 103.013 44.2151 103.868 44.2151 104.974C44.2151 106.008 43.6802 106.793 42.6104 107.328C41.5405 107.862 39.9893 108.13 37.9566 108.13C35.9239 108.13 33.9982 107.916 32.1795 107.488C30.3964 107.024 28.9343 106.507 27.7931 105.937C26.9373 105.437 26.0992 105.188 25.279 105.188C24.2805 105.188 23.4781 105.562 22.8719 106.311C22.2657 107.06 21.9625 107.934 21.9625 108.932C21.9625 109.681 22.1408 110.412 22.4974 111.125C22.8897 111.803 23.4425 112.374 24.1557 112.837C25.6178 113.657 27.5257 114.335 29.8793 114.87C32.233 115.405 34.7827 115.672 37.5286 115.672C42.7708 115.672 46.8184 114.656 49.6713 112.623C52.5242 110.555 53.9506 107.631 53.9506 103.851C53.9506 101.533 53.3444 99.6604 52.1319 98.2339C50.9194 96.8075 49.4751 95.7376 47.7991 95.0244C46.1587 94.2755 44.0368 93.5088 41.4335 92.7243C38.9016 91.9754 37.0472 91.2978 35.8704 90.6916C34.7292 90.0853 34.1587 89.2116 34.1587 88.0705C34.1587 86.965 34.7114 86.1091 35.8169 85.5029C36.9581 84.861 38.4915 84.54 40.4172 84.54C41.9863 84.54 43.5197 84.754 45.0175 85.1819C46.5153 85.5742 47.8169 86.0378 48.9224 86.5727C49.7426 87.1076 50.5985 87.3751 51.49 87.3751C52.5242 87.3751 53.3622 87.0006 54.0041 86.2518ZM82.2738 89.6458C81.5834 90.265 81.1355 91.095 80.93 92.1359C80.8893 92.3416 80.8582 92.5556 80.8365 92.7778L79.3387 111.125C79.3292 111.253 79.3235 111.378 79.3216 111.5C79.3026 112.744 79.6827 113.707 80.4621 114.388C80.6791 114.571 80.91 114.731 81.1545 114.869C81.9144 115.297 82.8069 115.512 83.8321 115.512C85.1872 115.512 86.3283 115.137 87.2555 114.388C88.2184 113.64 88.7533 112.552 88.8603 111.125L90.3581 92.7778C90.5007 91.3157 90.1441 90.2102 89.2882 89.4613C89.0443 89.2478 88.78 89.0648 88.4955 88.9122C87.9443 88.6165 87.317 88.435 86.6136 88.3677C86.4063 88.3479 86.1923 88.3379 85.9717 88.3379C85.1747 88.3379 84.4456 88.4675 83.7843 88.7265C83.3212 88.9079 82.8913 89.1528 82.4948 89.4613C82.4185 89.5205 82.3449 89.5821 82.2738 89.6458ZM94.3568 98.5804C94.0535 99.8645 93.9019 101.247 93.9019 102.727C93.9019 103.078 93.9126 103.423 93.9339 103.762C94.071 105.939 94.6488 107.877 95.6671 109.574C96.8796 111.5 98.5735 112.998 100.749 114.067C102.924 115.102 105.456 115.619 108.345 115.619C109.735 115.619 111.144 115.458 112.571 115.137C113.997 114.781 115.174 114.353 116.101 113.854C116.368 113.699 116.608 113.522 116.82 113.323C117.145 113.017 117.404 112.659 117.599 112.249C117.829 111.789 117.984 111.322 118.066 110.848C118.067 110.841 118.068 110.834 118.07 110.827C118.112 110.572 118.134 110.315 118.134 110.056C118.134 109.2 117.902 108.487 117.438 107.916C117.295 107.714 117.133 107.545 116.95 107.41C116.586 107.141 116.142 107.007 115.62 107.007C115.085 107.007 114.532 107.149 113.961 107.435C113.07 107.791 112.25 108.059 111.501 108.237C110.752 108.38 109.914 108.451 108.987 108.451C107.311 108.451 106.009 107.934 105.082 106.9C104.154 105.83 103.691 104.368 103.691 102.513C103.691 100.231 104.208 98.4836 105.242 97.2711C106.312 96.0229 107.81 95.3989 109.735 95.3989C111.376 95.3989 113.088 95.7911 114.871 96.5757C115.37 96.8253 115.869 96.9501 116.368 96.9501C116.921 96.9501 117.406 96.7943 117.824 96.4826C118.055 96.3112 118.265 96.0926 118.455 95.8268C119.025 95.0422 119.31 94.1507 119.31 93.1522C119.31 92.5103 119.168 91.9041 118.883 91.3335C118.73 91.0278 118.536 90.7579 118.301 90.5239C118.098 90.3211 117.864 90.1452 117.599 89.9962C116.6 89.4613 115.37 89.0333 113.908 88.7124C112.446 88.3914 110.859 88.231 109.147 88.231C106.045 88.231 103.334 88.8194 101.016 89.9962C98.734 91.1373 96.9688 92.8134 95.7206 95.0244C95.1146 96.1117 94.66 97.2971 94.3568 98.5804ZM117.437 101.329C117.091 101.381 116.735 101.408 116.368 101.408C115.149 101.408 114.014 101.11 113 100.623C111.712 100.066 110.636 99.8565 109.735 99.8565C108.893 99.8565 108.713 100.07 108.634 100.163C108.634 100.163 108.634 100.164 108.634 100.164C108.532 100.283 108.149 100.841 108.149 102.513C108.149 103.415 108.324 103.792 108.409 103.924C108.459 103.942 108.631 103.993 108.987 103.993C109.639 103.993 110.161 103.946 110.57 103.875C111.012 103.764 111.543 103.595 112.169 103.35C113.193 102.868 114.355 102.549 115.62 102.549C116.2 102.549 116.772 102.618 117.323 102.755L117.437 101.329ZM121.129 111.072C121.045 112.22 121.258 113.149 121.768 113.857C121.907 114.051 122.069 114.228 122.253 114.388C123.108 115.102 124.214 115.458 125.569 115.458C126.924 115.458 128.083 115.084 129.046 114.335C130.009 113.586 130.544 112.481 130.651 111.018L131.186 104.011L139.691 114.121C140.547 115.119 141.581 115.619 142.793 115.619C144.042 115.619 145.165 115.137 146.163 114.174C147.198 113.176 147.715 112.07 147.715 110.858C147.715 109.966 147.394 109.146 146.752 108.397L141.189 101.657L147.394 95.3989C147.507 95.2904 147.612 95.1799 147.711 95.0674C148.353 94.3356 148.692 93.5189 148.728 92.6173C148.73 92.5641 148.731 92.5106 148.731 92.4568C148.731 91.3513 148.285 90.3885 147.394 89.5683C147.383 89.5577 147.373 89.5472 147.362 89.5368C146.513 88.7019 145.525 88.2844 144.398 88.2844C143.186 88.2844 142.134 88.748 141.242 89.6752L131.56 99.6782L133.004 81.598C133.111 80.1359 132.719 79.0482 131.828 78.335C130.972 77.5861 129.866 77.2116 128.511 77.2116C127.156 77.2116 125.997 77.5861 125.034 78.335C124.107 79.0839 123.59 80.1894 123.483 81.6515L121.129 111.072ZM152.701 89.66C151.753 90.4568 151.257 91.3891 151.212 92.4568C151.209 92.51 151.208 92.5635 151.208 92.6173C151.208 93.0452 151.28 93.4197 151.422 93.7406L158.537 113.64L155.755 119.203C155.398 119.916 155.22 120.647 155.22 121.396C155.22 122.466 155.595 123.357 156.344 124.07C157.128 124.819 158.037 125.194 159.072 125.194C159.856 125.194 160.587 124.98 161.265 124.552C161.942 124.124 162.531 123.446 163.03 122.519L178.061 93.9011C178.382 93.2592 178.543 92.6529 178.543 92.0824C178.543 91.0125 178.097 90.121 177.205 89.4078C176.314 88.6589 175.297 88.2844 174.156 88.2844C173.336 88.2844 172.569 88.5162 171.856 88.9798C171.143 89.4078 170.572 90.0675 170.144 90.959L164.1 103.637L159.981 90.9055C159.66 90.014 159.179 89.3543 158.537 88.9264C157.895 88.4628 157.164 88.231 156.344 88.231C155.06 88.231 153.883 88.6767 152.813 89.5683C152.775 89.5986 152.738 89.6292 152.701 89.66ZM75.4351 104.158L75.7594 100.185C75.4642 100.231 75.1714 100.265 74.8836 100.289L74.5714 104.18C74.7919 104.164 75.0072 104.154 75.2053 104.154C75.2824 104.154 75.359 104.155 75.4351 104.158ZM74.4872 105.656C74.4907 105.672 74.4919 105.68 74.4916 105.68C74.4913 105.68 74.4895 105.673 74.4872 105.656ZM83.8939 84.0749C84.5023 84.3476 85.1949 84.5128 85.9717 84.5704C86.1797 84.5858 86.3936 84.5935 86.6136 84.5935C87.4417 84.5935 88.1796 84.4843 88.8273 84.2659C89.4347 84.0611 89.9628 83.7602 90.4116 83.3632C91.3744 82.5073 91.8558 81.384 91.8558 79.9932C91.8558 78.6024 91.3744 77.4969 90.4116 76.6767C89.4487 75.8565 88.1827 75.4464 86.6136 75.4464C85.0089 75.4464 83.7251 75.8565 82.7622 76.6767C81.835 77.4969 81.3714 78.6024 81.3714 79.9932C81.3714 81.384 81.835 82.5073 82.7622 83.3632C83.1 83.6509 83.4772 83.8881 83.8939 84.0749Z" fill="white"/>
<defs>
<filter id="filter0_d" x="13.9629" y="71.4463" width="172.58" height="65.7474" filterUnits="userSpaceOnUse" color-interpolation-filters="sRGB">
<feFlood flood-opacity="0" result="BackgroundImageFix"/>
<feColorMatrix in="SourceAlpha" type="matrix" values="0 0 0 0 0 0 0 0 0 0 0 0 0 0 0 0 0 0 127 0"/>
<feOffset dy="4"/>
<feGaussianBlur stdDeviation="4"/>
<feColorMatrix type="matrix" values="0 0 0 0 0 0 0 0 0 0 0 0 0 0 0 0 0 0 0.08 0"/>
<feBlend mode="normal" in2="BackgroundImageFix" result="effect1_dropShadow"/>
<feBlend mode="normal" in="SourceGraphic" in2="effect1_dropShadow" result="shape"/>
</filter>
<linearGradient id="paint0_linear" x1="62.8662" y1="68.5158" x2="137.284" y2="78.0211" gradientUnits="userSpaceOnUse">
<stop stop-color="#085CFF"/>
<stop offset="1" stop-color="#A108FF"/>
</linearGradient>
<linearGradient id="paint1_linear" x1="62.8662" y1="68.5158" x2="137.284" y2="78.0211" gradientUnits="userSpaceOnUse">
<stop stop-color="#085CFF"/>
<stop offset="1" stop-color="#A108FF"/>
</linearGradient>
<linearGradient id="paint2_linear" x1="62.8662" y1="68.5158" x2="137.284" y2="78.0211" gradientUnits="userSpaceOnUse">
<stop stop-color="#085CFF"/>
<stop offset="1" stop-color="#A108FF"/>
</linearGradient>
<linearGradient id="paint3_linear" x1="62.8662" y1="68.5158" x2="137.284" y2="78.0211" gradientUnits="userSpaceOnUse">
<stop stop-color="#085CFF"/>
<stop offset="1" stop-color="#A108FF"/>
</linearGradient>
<linearGradient id="paint4_linear" x1="62.8662" y1="68.5158" x2="137.284" y2="78.0211" gradientUnits="userSpaceOnUse">
<stop stop-color="#085CFF"/>
<stop offset="1" stop-color="#A108FF"/>
</linearGradient>
<linearGradient id="paint5_linear" x1="62.8662" y1="68.5158" x2="137.284" y2="78.0211" gradientUnits="userSpaceOnUse">
<stop stop-color="#085CFF"/>
<stop offset="1" stop-color="#A108FF"/>
</linearGradient>
</defs>
</svg>
