<svg width="180" height="80" viewBox="0 0 180 80" fill="none" xmlns="http://www.w3.org/2000/svg">
<g clip-path="url(#clip0)">
<g filter="url(#filter0_d)">
<path d="M34.2668 52.4319C31.8028 52.4319 29.5148 52.1919 27.4028 51.7119C25.2908 51.2319 23.5788 50.6239 22.2668 49.8879C21.6268 49.4719 21.1308 48.9599 20.7788 48.3519C20.4588 47.7119 20.2988 47.0559 20.2988 46.3839C20.2988 45.4879 20.5708 44.7039 21.1148 44.0319C21.6588 43.3599 22.3788 43.0239 23.2748 43.0239C24.0108 43.0239 24.7628 43.2479 25.5308 43.6959C26.5548 44.2079 27.8668 44.6719 29.4668 45.0879C31.0988 45.4719 32.8268 45.6639 34.6508 45.6639C36.4748 45.6639 37.8668 45.4239 38.8268 44.9439C39.7868 44.4639 40.2668 43.7599 40.2668 42.8319C40.2668 41.8399 39.7388 41.0719 38.6828 40.5279C37.6268 39.9519 35.9948 39.3439 33.7868 38.7039C31.4188 37.9999 29.4828 37.3119 27.9788 36.6399C26.4748 35.9679 25.1788 34.9759 24.0908 33.6639C23.0028 32.3199 22.4588 30.5919 22.4588 28.4799C22.4588 26.3359 23.0508 24.4479 24.2348 22.8159C25.4508 21.1839 27.1628 19.9359 29.3708 19.0719C31.5788 18.1759 34.1548 17.7279 37.0988 17.7279C39.4988 17.7279 41.7068 17.9999 43.7228 18.5439C45.7708 19.0559 47.3708 19.7599 48.5228 20.6559C49.4828 21.3919 49.9628 22.3679 49.9628 23.5839C49.9628 24.5119 49.6588 25.3279 49.0508 26.0319C48.4748 26.7039 47.7228 27.0399 46.7948 27.0399C45.9948 27.0399 45.2268 26.7999 44.4908 26.3199C43.4988 25.8399 42.3308 25.4239 40.9868 25.0719C39.6428 24.6879 38.2668 24.4959 36.8588 24.4959C35.1308 24.4959 33.7548 24.7839 32.7308 25.3599C31.7388 25.9039 31.2428 26.6719 31.2428 27.6639C31.2428 28.6879 31.7548 29.4719 32.7788 30.0159C33.8348 30.5599 35.4988 31.1679 37.7708 31.8399C40.1068 32.5439 42.0108 33.2319 43.4828 33.9039C44.9868 34.5439 46.2828 35.5039 47.3708 36.7839C48.4588 38.0639 49.0028 39.7439 49.0028 41.8239C49.0028 45.2159 47.7228 47.8399 45.1628 49.6959C42.6028 51.5199 38.9708 52.4319 34.2668 52.4319Z" fill="url(#paint0_linear)"/>
<path d="M68.0753 46.0959C68.6193 46.0959 69.0673 46.3359 69.4193 46.8159C69.7713 47.2959 69.9473 47.9199 69.9473 48.6879C69.9473 50.0639 69.4993 51.0239 68.6033 51.5679C67.7393 52.1119 66.2193 52.3839 64.0433 52.3839C61.0673 52.3839 58.7953 51.6639 57.2273 50.2239C55.6593 48.7519 54.8753 46.6239 54.8753 43.8399C54.8753 43.1999 54.8913 42.7199 54.9233 42.3999L55.5473 34.6719H54.1553C53.0033 34.6719 52.1073 34.4159 51.4673 33.9039C50.8273 33.3919 50.5073 32.6559 50.5073 31.6959C50.5073 29.4879 51.8993 28.3839 54.6833 28.3839H56.0753L56.3153 25.2639C56.4113 24.0159 56.8753 23.0399 57.7073 22.3359C58.5393 21.6319 59.6113 21.2799 60.9233 21.2799C62.2353 21.2799 63.2433 21.6319 63.9473 22.3359C64.6513 23.0399 64.9553 23.9999 64.8593 25.2159L64.6193 28.3839H67.2113C68.3313 28.3839 69.1953 28.6399 69.8033 29.1519C70.4433 29.6639 70.7633 30.3839 70.7633 31.3119C70.7633 32.4639 70.4273 33.3119 69.7553 33.8559C69.1153 34.3999 68.0913 34.6719 66.6833 34.6719H64.0913L63.4673 42.4479C63.4353 42.6399 63.4193 42.8959 63.4193 43.2159C63.4193 45.2319 64.2993 46.2399 66.0593 46.2399L67.0193 46.1919C67.5313 46.1279 67.8833 46.0959 68.0753 46.0959Z" fill="url(#paint1_linear)"/>
<path d="M75.8165 52.2879C74.6005 52.2879 73.5925 51.9519 72.7925 51.2799C72.0245 50.6079 71.6885 49.6319 71.7845 48.3519L73.1285 31.8879C73.2565 30.5759 73.7525 29.5839 74.6165 28.9119C75.4804 28.2399 76.5205 27.9039 77.7365 27.9039C78.9525 27.9039 79.9445 28.2399 80.7125 28.9119C81.4805 29.5839 81.8005 30.5759 81.6725 31.8879L80.3285 48.3519C80.2325 49.6319 79.7525 50.6079 78.8885 51.2799C78.0565 51.9519 77.0325 52.2879 75.8165 52.2879ZM78.3125 24.5439C76.8725 24.5439 75.7205 24.1759 74.8565 23.4399C74.0245 22.6719 73.6085 21.6639 73.6085 20.4159C73.6085 19.1679 74.0245 18.1759 74.8565 17.4399C75.7205 16.7039 76.8725 16.3359 78.3125 16.3359C79.7205 16.3359 80.8565 16.7039 81.7205 17.4399C82.5845 18.1759 83.0165 19.1679 83.0165 20.4159C83.0165 21.6639 82.5845 22.6719 81.7205 23.4399C80.8885 24.1759 79.7525 24.5439 78.3125 24.5439Z" fill="url(#paint2_linear)"/>
<path d="M97.8125 52.3839C95.2205 52.3839 92.9485 51.9199 90.9965 50.9919C89.0445 50.0319 87.5244 48.6879 86.4364 46.9599C85.3804 45.1999 84.8524 43.1519 84.8524 40.8159C84.8524 38.1599 85.3965 35.8559 86.4845 33.9039C87.6045 31.9199 89.1885 30.4159 91.2365 29.3919C93.3165 28.3359 95.7485 27.8079 98.5325 27.8079C100.068 27.8079 101.492 27.9519 102.804 28.2399C104.116 28.5279 105.22 28.9119 106.116 29.3919C106.628 29.6799 107.012 30.0799 107.268 30.5919C107.524 31.1039 107.652 31.6479 107.652 32.2239C107.652 33.1199 107.396 33.9199 106.884 34.6239C106.404 35.2959 105.78 35.6319 105.012 35.6319C104.564 35.6319 104.116 35.5199 103.668 35.2959C102.068 34.5919 100.532 34.2399 99.0605 34.2399C97.3325 34.2399 95.9885 34.7999 95.0285 35.9199C94.1005 37.0079 93.6365 38.5759 93.6365 40.6239C93.6365 42.2879 94.0525 43.5999 94.8845 44.5599C95.7165 45.4879 96.8845 45.9519 98.3885 45.9519C99.2205 45.9519 99.9725 45.8879 100.644 45.7599C101.316 45.5999 102.052 45.3599 102.852 45.0399C103.364 44.7839 103.86 44.6559 104.34 44.6559C105.044 44.6559 105.588 44.9279 105.972 45.4719C106.388 45.9839 106.596 46.6239 106.596 47.3919C106.596 48.0639 106.436 48.7199 106.116 49.3599C105.828 49.9679 105.38 50.4479 104.772 50.7999C103.94 51.2479 102.884 51.6319 101.604 51.9519C100.324 52.2399 99.0605 52.3839 97.8125 52.3839Z" fill="url(#paint3_linear)"/>
<path d="M132.276 45.9039C132.852 46.5759 133.14 47.3119 133.14 48.1119C133.14 49.1999 132.676 50.1919 131.748 51.0879C130.852 51.9519 129.844 52.3839 128.724 52.3839C127.636 52.3839 126.708 51.9359 125.94 51.0399L118.308 41.9679L117.828 48.2559C117.732 49.5679 117.252 50.5599 116.388 51.2319C115.524 51.9039 114.484 52.2399 113.268 52.2399C112.052 52.2399 111.06 51.9199 110.292 51.2799C109.524 50.6079 109.188 49.6159 109.284 48.3039L111.396 21.9039C111.492 20.5919 111.956 19.5999 112.788 18.9279C113.652 18.2559 114.692 17.9199 115.908 17.9199C117.124 17.9199 118.116 18.2559 118.884 18.9279C119.684 19.5679 120.036 20.5439 119.94 21.8559L118.644 38.0799L127.332 29.1039C128.132 28.2719 129.076 27.8559 130.164 27.8559C131.188 27.8559 132.084 28.2399 132.852 29.0079C133.652 29.7439 134.052 30.6079 134.052 31.5999C134.052 32.5919 133.652 33.4719 132.852 34.2399L127.284 39.8559L132.276 45.9039Z" fill="url(#paint4_linear)"/>
<path d="M153.267 30.2559C153.651 29.4559 154.163 28.8639 154.803 28.4799C155.443 28.0639 156.131 27.8559 156.867 27.8559C157.891 27.8559 158.803 28.1919 159.603 28.8639C160.403 29.5039 160.803 30.3039 160.803 31.2639C160.803 31.7759 160.659 32.3199 160.371 32.8959L146.883 58.5759C146.435 59.4079 145.907 60.0159 145.299 60.3999C144.691 60.7839 144.035 60.9759 143.331 60.9759C142.403 60.9759 141.587 60.6399 140.883 59.9679C140.211 59.3279 139.875 58.5279 139.875 57.5679C139.875 56.8959 140.035 56.2399 140.355 55.5999L142.851 50.6079L136.467 32.7519C136.339 32.4639 136.275 32.1279 136.275 31.7439C136.275 30.6879 136.755 29.7759 137.715 29.0079C138.675 28.2079 139.731 27.8079 140.883 27.8079C141.619 27.8079 142.275 28.0159 142.851 28.4319C143.427 28.8159 143.859 29.4079 144.147 30.2079L147.843 41.6319L153.267 30.2559Z" fill="url(#paint5_linear)"/>
</g>
<g filter="url(#filter1_d)">
<path fill-rule="evenodd" clip-rule="evenodd" d="M18.3528 56.8651C18.2013 56.7801 18.0526 56.6902 17.9069 56.5955C16.3052 55.5543 14.8912 54.1492 13.8554 52.3602C13.7737 52.2191 13.6963 52.0755 13.6234 51.9296C12.7849 50.2526 12.2988 48.3778 12.2988 46.3839C12.2988 43.7276 13.1553 41.1497 14.8969 38.9984C15.4657 38.2957 16.1003 37.6845 16.7862 37.1661C15.1149 34.4606 14.4588 31.434 14.4588 28.4799C14.4588 24.7619 15.5199 21.2051 17.7595 18.1181C17.7794 18.0906 17.7995 18.0633 17.8198 18.0361C20.0584 15.0316 23.0603 12.9589 26.4091 11.6403C29.7558 10.2905 33.376 9.72794 37.0988 9.72794C40.0742 9.72794 42.9687 10.0621 45.7349 10.8008C48.3883 11.471 51.1071 12.5372 53.4139 14.3253C53.7024 14.5475 53.9782 14.7801 54.2409 15.0222C56.3825 13.765 58.7219 13.2799 60.9233 13.2799C62.8036 13.2799 64.9566 13.6411 66.9752 14.7237C67.5995 13.5365 68.4509 12.4255 69.5559 11.448C69.5932 11.415 69.6308 11.3823 69.6687 11.35C72.3348 9.07893 75.4958 8.33594 78.3125 8.33594C81.1487 8.33594 84.2734 9.10557 86.9082 11.35C89.7477 13.7688 91.0164 17.0873 91.0164 20.4159C91.0164 20.5735 91.0136 20.7308 91.0079 20.888C93.4296 20.1395 95.9619 19.8079 98.5325 19.8079C100.226 19.8079 101.901 19.94 103.541 20.2316C103.948 17.5692 105.179 14.7902 107.762 12.7044C107.8 12.6736 107.838 12.6432 107.877 12.6131C110.301 10.7274 113.122 9.91994 115.908 9.91994C118.624 9.91994 121.554 10.6962 124.023 12.7956C126.527 14.865 127.598 17.5599 127.877 20.0747C128.614 19.931 129.378 19.8559 130.164 19.8559C132.046 19.8559 133.799 20.2917 135.361 21.0714C137.028 20.2653 138.887 19.8079 140.883 19.8079C143.19 19.8079 145.453 20.4814 147.417 21.8621C147.934 22.2173 148.402 22.6038 148.824 23.0131C149.344 22.5355 149.921 22.0924 150.561 21.6972C152.421 20.5178 154.572 19.8559 156.867 19.8559C159.784 19.8559 162.482 20.8608 164.679 22.6796C167.185 24.7196 168.803 27.7282 168.803 31.2639C168.803 33.2964 168.231 35.0661 167.527 36.4736C167.503 36.5213 167.479 36.5687 167.454 36.6159L153.966 62.2959C153.953 62.3202 153.94 62.3445 153.927 62.3687C153.025 64.0439 151.653 65.849 149.571 67.1639C147.714 68.337 145.582 68.9759 143.331 68.9759C140.241 68.9759 137.477 67.7733 135.366 65.761C135.365 65.76 135.364 65.759 135.363 65.7579C135.362 65.7569 135.361 65.7558 135.36 65.7548C133.644 64.1183 132.557 62.0904 132.11 59.9031C131.047 60.214 129.915 60.3839 128.724 60.3839C125.796 60.3839 123.231 59.3225 121.224 57.6051C118.817 59.4492 116.026 60.2399 113.268 60.2399C111.198 60.2399 108.968 59.7986 106.904 58.627C105.801 59.0819 104.664 59.4333 103.545 59.7131C103.484 59.7284 103.422 59.743 103.361 59.7568C101.534 60.1679 99.6807 60.3839 97.8125 60.3839C94.2657 60.3839 90.7794 59.7468 87.5616 58.217C87.5296 58.2018 87.4977 58.1864 87.4659 58.1707C86.5585 57.7245 85.6924 57.2178 84.8732 56.6508C84.5595 56.9628 84.2218 57.2627 83.8591 57.5485C81.4233 59.493 78.5762 60.2879 75.8165 60.2879C74.1702 60.2879 72.4708 60.004 70.8443 59.3388C68.4128 60.2654 65.8545 60.3839 64.0433 60.3839C59.8628 60.3839 55.3589 59.3698 51.8161 56.1162C51.7946 56.0964 51.7731 56.0765 51.7518 56.0565C51.4845 55.8055 51.23 55.5484 50.988 55.2858C50.6279 55.5921 50.2515 55.8879 49.8586 56.1728L49.805 56.2113C45.3683 59.3725 39.8535 60.4319 34.2668 60.4319C31.2863 60.4319 28.3968 60.1418 25.6299 59.513C23.0674 58.9306 20.5585 58.1024 18.3528 56.8651ZM47.2321 47.6717C48.0512 46.5649 48.5861 45.2877 48.8369 43.8399C48.9424 43.2308 48.9976 42.5914 49.0025 41.9219C49.0027 41.8893 49.0028 41.8567 49.0028 41.8239C49.0028 41.8186 49.0028 41.8132 49.0028 41.8079C49.0028 41.7612 49.0024 41.7147 49.0018 41.6684C48.9832 40.2614 48.7108 39.0411 48.1846 38.0073C47.9597 37.5654 47.6885 37.1576 47.3708 36.7839C47.3647 36.7768 47.3586 36.7696 47.3525 36.7624C46.7564 36.0646 46.0981 35.4624 45.3776 34.9559C44.7877 34.5411 44.1561 34.1904 43.4828 33.9039C43.2202 33.7841 42.9439 33.6637 42.6538 33.5428C42.5575 33.5026 42.4597 33.4624 42.3603 33.4222C42.357 33.4209 42.3537 33.4195 42.3505 33.4182C42.3491 33.4176 42.3477 33.4171 42.3463 33.4165C42.0023 33.2773 41.6402 33.1375 41.26 32.9969C40.9671 32.8886 40.6634 32.78 40.3489 32.6709C39.9516 32.5331 39.5371 32.3946 39.1054 32.2555C39.0534 32.2388 39.0012 32.222 38.9487 32.2053C38.5691 32.084 38.1765 31.9622 37.7708 31.8399C37.6611 31.8075 37.5527 31.7752 37.4458 31.743C37.2452 31.6826 37.0495 31.6228 36.8588 31.5635C36.5895 31.4797 36.3301 31.3969 36.0807 31.3153C36.051 31.3055 36.0215 31.2958 35.9921 31.2862C35.9875 31.2846 35.9828 31.2831 35.9782 31.2815C35.966 31.2775 35.9539 31.2735 35.9417 31.2695C34.5818 30.8195 33.5275 30.4016 32.7788 30.0159C32.6772 29.9619 32.5805 29.9056 32.489 29.8468C31.6582 29.3139 31.2428 28.5863 31.2428 27.6639C31.2428 27.4286 31.2708 27.2058 31.3266 26.9957C31.4415 26.5631 31.6748 26.184 32.0264 25.8583C32.0499 25.8365 32.0739 25.8149 32.0985 25.7936C32.2803 25.636 32.4911 25.4914 32.7308 25.3599C33.4909 24.9324 34.4449 24.6635 35.5929 24.5533C35.6236 24.5504 35.6544 24.5476 35.6854 24.5448C36.0566 24.5122 36.4477 24.4959 36.8588 24.4959C36.9389 24.4959 37.0189 24.4966 37.0988 24.4978C37.4913 24.5039 37.8813 24.525 38.2687 24.5611C38.802 24.6108 39.3306 24.6889 39.8544 24.7954C39.8668 24.7979 39.8792 24.8004 39.8916 24.803C40.259 24.8786 40.6241 24.9683 40.9868 25.0719C41.2982 25.1535 41.6001 25.2385 41.8925 25.3269C41.9344 25.3395 41.9761 25.3523 42.0176 25.3651C42.1601 25.409 42.3004 25.4539 42.4384 25.4995C42.966 25.674 43.4601 25.8607 43.9208 26.0595C44.0213 26.1029 44.1202 26.1468 44.2175 26.1913C44.2327 26.1983 44.2479 26.2053 44.263 26.2122C44.3399 26.2478 44.4159 26.2837 44.4908 26.3199C45.1085 26.7228 45.7488 26.9566 46.4116 27.0213C46.4802 27.028 46.5491 27.0329 46.6182 27.036C46.6769 27.0386 46.7358 27.0399 46.7948 27.0399C47.0536 27.0399 47.2986 27.0138 47.53 26.9616C47.7599 26.9097 47.9762 26.832 48.179 26.7286C48.5044 26.5627 48.795 26.3305 49.0508 26.0319C49.3871 25.6426 49.6303 25.2191 49.7806 24.7613C49.9021 24.3912 49.9628 23.9988 49.9628 23.5839C49.9628 22.7308 49.7265 21.9958 49.254 21.3789C49.2008 21.3094 49.1445 21.2414 49.0853 21.175C48.9209 20.9904 48.7334 20.8174 48.5228 20.6559C48.4489 20.5985 48.3732 20.5418 48.2956 20.4859C48.0627 20.3181 47.8132 20.1574 47.547 20.0038C47.3095 19.8668 47.0588 19.7354 46.7948 19.6097C46.4643 19.4523 46.113 19.3038 45.7409 19.1642C45.1251 18.9331 44.4524 18.7263 43.7228 18.5439C43.4552 18.4717 43.1842 18.4043 42.9098 18.3417C42.8594 18.3302 42.809 18.3188 42.7584 18.3077C41.0083 17.9212 39.1218 17.7279 37.0988 17.7279C37.0186 17.7279 36.9386 17.7283 36.8588 17.7289C34.0146 17.7527 31.5186 18.2004 29.3708 19.0719C29.3466 19.0814 29.3224 19.091 29.2983 19.1005C29.2742 19.1101 29.2501 19.1197 29.2261 19.1294C27.4381 19.8498 25.9819 20.8271 24.8574 22.0612C24.6371 22.3029 24.4296 22.5545 24.2348 22.8159C23.0508 24.4479 22.4588 26.3359 22.4588 28.4799C22.4588 30.5919 23.0028 32.3199 24.0908 33.6639C24.5967 34.2739 25.1475 34.8147 25.7432 35.2864C26.4289 35.8292 27.1741 36.2804 27.9788 36.6399C28.2605 36.7658 28.5573 36.8922 28.8692 37.0191C28.9246 37.0417 28.9806 37.0643 29.0369 37.0869C29.0643 37.0978 29.0917 37.1088 29.1193 37.1198C29.1857 37.1462 29.2529 37.1727 29.3206 37.1991C29.8894 37.4214 30.5041 37.6454 31.1649 37.871C31.2192 37.8896 31.2738 37.9081 31.3288 37.9267C32.0886 38.1836 32.908 38.4427 33.7868 38.7039C33.8418 38.7199 33.8964 38.7358 33.9507 38.7517C34.1911 38.8221 34.4244 38.8921 34.6508 38.9618C34.96 39.0569 35.2561 39.1513 35.5392 39.245C35.5518 39.2491 35.5644 39.2533 35.5769 39.2575C35.7449 39.3132 35.9082 39.3687 36.0669 39.424C37.1586 39.8042 38.0306 40.1722 38.6828 40.5279C38.7739 40.5749 38.8611 40.6235 38.9443 40.6737C39.826 41.2061 40.2668 41.9255 40.2668 42.8319C40.2668 43.0235 40.2464 43.2055 40.2055 43.378C40.0482 44.0411 39.5886 44.563 38.8268 44.9439C38.1324 45.2912 37.2119 45.5128 36.0654 45.6088C36.0123 45.6133 35.9587 45.6175 35.9046 45.6214C35.5122 45.6498 35.0943 45.6639 34.6508 45.6639C34.5224 45.6639 34.3944 45.663 34.2668 45.6611C33.8419 45.6547 33.4222 45.6378 33.0078 45.6103C32.6058 45.5836 32.2088 45.547 31.8168 45.5004C31.8006 45.4985 31.7843 45.4965 31.768 45.4945C30.9808 45.3992 30.2138 45.2637 29.4668 45.0879C29.2878 45.0414 29.1123 44.9942 28.9404 44.9465C28.4106 44.7992 27.915 44.6462 27.4537 44.4875C26.9694 44.3209 26.5229 44.148 26.1142 43.9688C25.9698 43.9055 25.8302 43.8414 25.6952 43.7765C25.6396 43.7498 25.5848 43.7229 25.5308 43.6959C25.3387 43.5839 25.1476 43.4858 24.9576 43.4018C24.3877 43.1499 23.8267 43.0239 23.2748 43.0239C23.1637 43.0239 23.0552 43.0291 22.9495 43.0395C22.2029 43.1125 21.5913 43.4433 21.1148 44.0319C20.5708 44.7039 20.2988 45.4879 20.2988 46.3839C20.2988 47.0559 20.4588 47.7119 20.7788 48.3519C21.0839 48.879 21.4973 49.3339 22.0188 49.7166C22.0989 49.7754 22.1816 49.8325 22.2668 49.8879C22.3103 49.9123 22.3542 49.9365 22.3985 49.9606C22.6737 50.1102 22.9658 50.2544 23.2748 50.3932C23.6483 50.5609 24.0465 50.7207 24.4694 50.8726C25.342 51.186 26.3198 51.4658 27.4028 51.7119C27.5101 51.7363 27.6179 51.7601 27.7261 51.7832C27.7785 51.7944 27.831 51.8055 27.8837 51.8164C29.8609 52.2268 31.9886 52.4319 34.2668 52.4319C34.3956 52.4319 34.5236 52.4313 34.6508 52.4299C37.5082 52.3992 39.96 52.0234 42.0061 51.3025C43.1954 50.8836 44.2476 50.348 45.1628 49.6959C45.7041 49.3035 46.1882 48.8767 46.615 48.4156C46.836 48.1769 47.0417 47.9289 47.2321 47.6717ZM51.3026 29.436C50.7724 29.9791 50.5073 30.7324 50.5073 31.6959C50.5073 32.4719 50.7164 33.1015 51.1345 33.5848M51.3026 29.436C51.558 29.1744 51.8748 28.9616 52.2532 28.7976C52.2586 28.7953 52.2639 28.793 52.2693 28.7907C52.7849 28.5701 53.4135 28.4392 54.1553 28.3981C54.3254 28.3887 54.5014 28.3839 54.6833 28.3839H56.0753L56.3153 25.2639C56.3637 24.6348 56.5056 24.0748 56.7411 23.5839C56.9727 23.101 57.2947 22.685 57.7073 22.3359C57.7652 22.287 57.8242 22.2397 57.8844 22.1941C58.6896 21.5847 59.7026 21.2799 60.9233 21.2799C62.2353 21.2799 63.2433 21.6319 63.9473 22.3359C64.2409 22.6295 64.4649 22.9675 64.6193 23.3501C64.8353 23.885 64.9153 24.507 64.8593 25.2159L64.6728 27.6779L64.6193 28.3839H67.2113C67.7671 28.3839 68.2598 28.447 68.6894 28.573C68.8359 28.616 68.9751 28.6663 69.1069 28.7239C69.315 28.8149 69.5049 28.9241 69.6765 29.0516C69.7199 29.0839 69.7622 29.1173 69.8033 29.1519C69.8408 29.1819 69.8771 29.2125 69.9123 29.2439C70.2238 29.5211 70.4498 29.854 70.5903 30.2424C70.7056 30.5614 70.7633 30.9179 70.7633 31.3119C70.7633 31.4299 70.7598 31.5446 70.7528 31.6562C70.752 31.6687 70.7511 31.6813 70.7502 31.6938C70.6824 32.6532 70.3508 33.3739 69.7553 33.8559C69.1983 34.3294 68.3503 34.5969 67.2113 34.6582C67.0418 34.6674 66.8658 34.6719 66.6833 34.6719H64.0913L63.4673 42.4479C63.4353 42.6399 63.4193 42.8959 63.4193 43.2159C63.4193 43.6469 63.4596 44.0318 63.54 44.3707C63.6108 44.6688 63.7127 44.9314 63.8458 45.1582C63.8932 45.239 63.9445 45.3153 63.9999 45.3871C64.0141 45.4055 64.0286 45.4237 64.0433 45.4415C64.3272 45.7852 64.7079 46.0179 65.1855 46.1397C65.2319 46.1515 65.2791 46.1623 65.3272 46.172C65.5515 46.2173 65.7955 46.2399 66.0593 46.2399L67.0193 46.1919C67.5313 46.1279 67.8833 46.0959 68.0753 46.0959C68.6193 46.0959 69.0673 46.3359 69.4193 46.8159C69.6935 47.1899 69.8609 47.6512 69.9215 48.1999C69.922 48.204 69.9225 48.2082 69.9229 48.2123C69.9392 48.3642 69.9473 48.5227 69.9473 48.6879C69.9473 50.0639 69.4993 51.0239 68.6033 51.5679C68.4484 51.6655 68.2724 51.7543 68.0753 51.8343C67.9696 51.8773 67.8577 51.9177 67.7398 51.9556C67.6056 51.9988 67.4635 52.0387 67.3135 52.0754C67.0248 52.1459 66.7069 52.2043 66.3598 52.2507C66.262 52.2638 66.1618 52.2759 66.0593 52.287C65.5375 52.3438 64.9555 52.3756 64.3133 52.3825C64.2245 52.3835 64.1345 52.3839 64.0433 52.3839C63.9323 52.3839 63.8222 52.3829 63.7131 52.3809C61.5226 52.3407 59.7273 51.8962 58.3273 51.0474C57.9286 50.8057 57.5619 50.5312 57.2273 50.2239C56.6696 49.7004 56.2111 49.0939 55.8518 48.4044C55.2008 47.1553 54.8753 45.6338 54.8753 43.8399C54.8753 43.361 54.8843 42.9717 54.9022 42.6719C54.9082 42.5711 54.9153 42.4805 54.9233 42.3999L55.5473 34.6719H54.1553C53.4956 34.6719 52.9198 34.588 52.428 34.4201C52.1037 34.3093 51.8159 34.1621 51.5646 33.9784C51.5316 33.9542 51.4991 33.9294 51.4673 33.9039M77.5082 52.0321C78.0156 51.8641 78.4756 51.6134 78.8885 51.2799C79.0802 51.1308 79.2531 50.9667 79.407 50.7876C79.9466 50.1597 80.2538 49.3478 80.3285 48.3519L81.6725 31.8879C81.6946 31.6612 81.7033 31.4441 81.6987 31.2365C81.6984 31.2249 81.6981 31.2133 81.6978 31.2018C81.6688 30.2246 81.3403 29.4613 80.7124 28.9119C80.5959 28.8099 80.4742 28.7157 80.3473 28.6292C79.7742 28.2385 79.096 28.0056 78.3125 27.9306C78.2911 27.9286 78.2697 27.9267 78.2482 27.9249C78.0823 27.9109 77.9117 27.9039 77.7365 27.9039C76.5204 27.9039 75.4804 28.2399 74.6165 28.9119C73.8838 29.4818 73.4157 30.2818 73.2123 31.3119C73.1928 31.4109 73.1757 31.5119 73.161 31.6151C73.1483 31.7045 73.1375 31.7954 73.1285 31.8879L71.7845 48.3519C71.7759 48.4664 71.7707 48.5784 71.7691 48.6879C71.752 49.804 72.0931 50.668 72.7925 51.2799C73.5925 51.9519 74.6005 52.2879 75.8165 52.2879C76.4291 52.2879 76.993 52.2026 77.5082 52.0321ZM76.1522 24.1933C76.6279 24.3702 77.156 24.4802 77.7365 24.5232C77.923 24.537 78.115 24.5439 78.3125 24.5439C79.7525 24.5439 80.8885 24.1759 81.7205 23.4399C82.4507 22.7908 82.8724 21.9703 82.9854 20.9783C83.0061 20.7966 83.0164 20.6091 83.0164 20.4159C83.0164 19.1679 82.5845 18.1759 81.7205 17.4399C80.8565 16.7039 79.7205 16.3359 78.3125 16.3359C76.8725 16.3359 75.7205 16.7039 74.8565 17.4399C74.0245 18.1759 73.6085 19.1679 73.6085 20.4159C73.6085 20.456 73.6089 20.4958 73.6097 20.5354C73.6242 21.2028 73.7606 21.7998 74.019 22.3264C74.1684 22.6309 74.3585 22.9119 74.5894 23.1693C74.6323 23.2172 74.6767 23.2643 74.7224 23.3105C74.7658 23.3544 74.8105 23.3975 74.8565 23.4399C75.2335 23.7611 75.6654 24.0122 76.1522 24.1933ZM87.5222 32.3655C87.4992 32.3942 87.4763 32.423 87.4536 32.4519C87.0991 32.9034 86.776 33.3874 86.4845 33.9039C85.3965 35.8559 84.8524 38.1599 84.8524 40.8159C84.8524 43.1519 85.3804 45.1999 86.4364 46.9599C86.8923 47.6839 87.424 48.3405 88.0315 48.9297C88.0507 48.9483 88.0701 48.9669 88.0895 48.9855C88.1547 49.0478 88.2208 49.1094 88.2878 49.1701C88.3302 49.2087 88.3731 49.2469 88.4162 49.2849C88.5845 49.4328 88.758 49.576 88.9368 49.7146C88.9723 49.742 89.0079 49.7693 89.0438 49.7964C89.6379 50.2454 90.2888 50.6439 90.9965 50.9919C92.9485 51.9199 95.2205 52.3839 97.8125 52.3839C98.0041 52.3839 98.1961 52.3805 98.3885 52.3738C99.4423 52.3366 100.508 52.1975 101.584 51.9565C101.591 51.955 101.598 51.9535 101.604 51.9519C101.632 51.9451 101.659 51.9382 101.686 51.9313C101.729 51.9204 101.772 51.9095 101.814 51.8985C101.907 51.8744 101.998 51.8498 102.089 51.8249C102.951 51.5876 103.701 51.3184 104.34 51.0174C104.491 50.9466 104.635 50.8742 104.772 50.7999C104.879 50.7382 104.981 50.6725 105.078 50.6029C105.219 50.5015 105.349 50.3917 105.469 50.2736C105.737 50.0105 105.953 49.706 106.116 49.3599C106.323 48.9475 106.462 48.5285 106.536 48.1028C106.537 48.0966 106.538 48.0905 106.539 48.0843C106.577 47.8554 106.596 47.6246 106.596 47.3919C106.596 46.6239 106.388 45.9839 105.972 45.4719C105.588 44.9279 105.044 44.6559 104.34 44.6559C103.86 44.6559 103.364 44.7839 102.852 45.0399C102.512 45.1759 102.184 45.2975 101.867 45.4045C101.806 45.4253 101.745 45.4456 101.684 45.4653C101.616 45.4875 101.548 45.509 101.481 45.5298C101.192 45.6193 100.913 45.696 100.644 45.7599C100.509 45.7858 100.369 45.8091 100.227 45.8297C100.178 45.8368 100.129 45.8436 100.079 45.8501C99.814 45.8846 99.5381 45.9104 99.2512 45.9273C99.1372 45.9341 99.0213 45.9394 98.9038 45.9434C98.8979 45.9436 98.892 45.9438 98.8861 45.944C98.7235 45.9493 98.5577 45.9519 98.3885 45.9519C98.1906 45.9519 97.9986 45.9439 97.8125 45.9279C96.583 45.8219 95.607 45.3659 94.8845 44.5599C94.7246 44.3755 94.5801 44.1781 94.451 43.9677C94.4292 43.9322 94.4079 43.8964 94.387 43.8601C94.3549 43.8046 94.3239 43.7482 94.2939 43.6909C93.8556 42.854 93.6365 41.8317 93.6365 40.6239C93.6365 39.0465 93.9117 37.7539 94.4623 36.746C94.5394 36.6047 94.622 36.469 94.71 36.3389C94.7201 36.3239 94.7303 36.309 94.7406 36.2941C94.831 36.1637 94.927 36.0389 95.0285 35.9199C95.8884 34.9167 97.0564 34.3628 98.5325 34.2582C98.7043 34.246 98.8803 34.2399 99.0605 34.2399C99.431 34.2399 99.8056 34.2622 100.184 34.3069C100.593 34.355 101.006 34.4291 101.424 34.5291C101.727 34.6016 102.032 34.6878 102.34 34.7876C102.545 34.8541 102.752 34.9266 102.959 35.0052C103 35.021 103.042 35.037 103.084 35.0532C103.278 35.1288 103.473 35.2097 103.668 35.2959C104.116 35.5199 104.564 35.6319 105.012 35.6319C105.78 35.6319 106.404 35.2959 106.884 34.6239C107.396 33.9199 107.652 33.1199 107.652 32.2239C107.652 31.6479 107.524 31.1039 107.268 30.5919C107.08 30.215 106.822 29.8987 106.495 29.6432C106.413 29.579 106.326 29.5187 106.235 29.4622C106.196 29.4381 106.157 29.4147 106.116 29.3919C105.778 29.2107 105.41 29.0431 105.012 28.8892C104.373 28.6417 103.656 28.4296 102.863 28.2529C102.844 28.2485 102.824 28.2442 102.804 28.2399C102.723 28.222 102.641 28.2047 102.558 28.1879C101.468 27.9658 100.302 27.8411 99.0605 27.8137C98.8859 27.8099 98.71 27.8079 98.5325 27.8079C95.7485 27.8079 93.3165 28.3359 91.2365 29.3919C90.6746 29.6729 90.1476 29.9899 89.6556 30.3431C89.4507 30.4902 89.2518 30.6436 89.059 30.8033C89.054 30.8074 89.0491 30.8115 89.0441 30.8156C88.8335 30.9906 88.6303 31.173 88.4342 31.363C88.1105 31.6767 87.8064 32.0109 87.5222 32.3655ZM109.284 48.3039C109.188 49.6159 109.524 50.6079 110.292 51.2799C110.354 51.3311 110.417 51.3803 110.481 51.4274C110.874 51.7149 111.319 51.9261 111.819 52.061C112.26 52.1803 112.743 52.2399 113.268 52.2399C113.38 52.2399 113.49 52.2371 113.599 52.2314C114.467 52.1862 115.24 51.9604 115.918 51.554C116.081 51.4569 116.237 51.3496 116.388 51.2319C117.252 50.5599 117.732 49.5679 117.828 48.2559L118.308 41.9679L125.94 51.0399C126.708 51.9359 127.636 52.3839 128.724 52.3839C129.844 52.3839 130.852 51.9519 131.748 51.0879C132.676 50.1919 133.14 49.1999 133.14 48.1119C133.14 47.3119 132.852 46.5759 132.276 45.9039L127.284 39.8559L132.852 34.2399C132.954 34.1426 133.049 34.0435 133.137 33.9425C133.713 33.2858 134.018 32.553 134.05 31.7439C134.052 31.6962 134.052 31.6482 134.052 31.5999C134.052 30.6079 133.652 29.7439 132.852 29.0079C132.084 28.2399 131.188 27.8559 130.164 27.8559C129.715 27.8559 129.29 27.9269 128.89 28.0689C128.443 28.2275 128.026 28.4747 127.64 28.8106C127.594 28.8509 127.548 28.8926 127.502 28.9356C127.465 28.9706 127.428 29.0065 127.392 29.0432C127.372 29.0632 127.352 29.0835 127.332 29.1039L118.644 38.0799L119.94 21.8559C120.036 20.5439 119.684 19.5679 118.884 18.9279C118.116 18.2559 117.124 17.9199 115.908 17.9199C114.692 17.9199 113.652 18.2559 112.788 18.9279C111.956 19.5999 111.492 20.5919 111.396 21.9039L109.284 48.3039ZM137.715 29.0079C136.799 29.7408 136.32 30.6048 136.278 31.5999C136.276 31.6476 136.275 31.6956 136.275 31.7439C136.275 32.1279 136.339 32.4639 136.467 32.7519L142.851 50.6079L140.355 55.5999C140.035 56.2399 139.875 56.8959 139.875 57.5679C139.875 58.5279 140.211 59.3279 140.883 59.9679C141.587 60.6399 142.403 60.9759 143.331 60.9759C144.035 60.9759 144.691 60.7839 145.299 60.3999C145.851 60.0514 146.337 59.5184 146.757 58.8008C146.8 58.7278 146.842 58.6528 146.883 58.5759L160.371 32.8959C160.659 32.3199 160.803 31.7759 160.803 31.2639C160.803 30.3039 160.403 29.5039 159.603 28.8639C158.803 28.1919 157.891 27.8559 156.867 27.8559C156.131 27.8559 155.443 28.0639 154.803 28.4799C154.409 28.7165 154.063 29.0321 153.766 29.4267C153.736 29.4666 153.707 29.5074 153.677 29.5489C153.528 29.7631 153.391 29.9988 153.267 30.2559L147.843 41.6319L144.147 30.2079C143.859 29.4079 143.427 28.8159 142.851 28.4319C142.419 28.1196 141.941 27.9245 141.419 27.8467C141.245 27.8209 141.067 27.8079 140.883 27.8079C139.731 27.8079 138.675 28.2079 137.715 29.0079Z" fill="white"/>
</g>
</g>
<defs>
<filter id="filter0_d" x="12.2988" y="12.3359" width="156.505" height="60.64" filterUnits="userSpaceOnUse" color-interpolation-filters="sRGB">
<feFlood flood-opacity="0" result="BackgroundImageFix"/>
<feColorMatrix in="SourceAlpha" type="matrix" values="0 0 0 0 0 0 0 0 0 0 0 0 0 0 0 0 0 0 127 0"/>
<feOffset dy="4"/>
<feGaussianBlur stdDeviation="4"/>
<feColorMatrix type="matrix" values="0 0 0 0 0 0 0 0 0 0 0 0 0 0 0 0 0 0 0.08 0"/>
<feBlend mode="normal" in2="BackgroundImageFix" result="effect1_dropShadow"/>
<feBlend mode="normal" in="SourceGraphic" in2="effect1_dropShadow" result="shape"/>
</filter>
<filter id="filter1_d" x="4.29883" y="4.33594" width="172.505" height="76.64" filterUnits="userSpaceOnUse" color-interpolation-filters="sRGB">
<feFlood flood-opacity="0" result="BackgroundImageFix"/>
<feColorMatrix in="SourceAlpha" type="matrix" values="0 0 0 0 0 0 0 0 0 0 0 0 0 0 0 0 0 0 127 0"/>
<feOffset dy="4"/>
<feGaussianBlur stdDeviation="4"/>
<feColorMatrix type="matrix" values="0 0 0 0 0 0 0 0 0 0 0 0 0 0 0 0 0 0 0.08 0"/>
<feBlend mode="normal" in2="BackgroundImageFix" result="effect1_dropShadow"/>
<feBlend mode="normal" in="SourceGraphic" in2="effect1_dropShadow" result="shape"/>
</filter>
<linearGradient id="paint0_linear" x1="57.0027" y1="10.1169" x2="123.781" y2="18.6464" gradientUnits="userSpaceOnUse">
<stop stop-color="#085CFF"/>
<stop offset="1" stop-color="#A108FF"/>
</linearGradient>
<linearGradient id="paint1_linear" x1="57.0027" y1="10.1169" x2="123.781" y2="18.6464" gradientUnits="userSpaceOnUse">
<stop stop-color="#085CFF"/>
<stop offset="1" stop-color="#A108FF"/>
</linearGradient>
<linearGradient id="paint2_linear" x1="57.0027" y1="10.1169" x2="123.781" y2="18.6464" gradientUnits="userSpaceOnUse">
<stop stop-color="#085CFF"/>
<stop offset="1" stop-color="#A108FF"/>
</linearGradient>
<linearGradient id="paint3_linear" x1="57.0027" y1="10.1169" x2="123.781" y2="18.6464" gradientUnits="userSpaceOnUse">
<stop stop-color="#085CFF"/>
<stop offset="1" stop-color="#A108FF"/>
</linearGradient>
<linearGradient id="paint4_linear" x1="57.0027" y1="10.1169" x2="123.781" y2="18.6464" gradientUnits="userSpaceOnUse">
<stop stop-color="#085CFF"/>
<stop offset="1" stop-color="#A108FF"/>
</linearGradient>
<linearGradient id="paint5_linear" x1="57.0027" y1="10.1169" x2="123.781" y2="18.6464" gradientUnits="userSpaceOnUse">
<stop stop-color="#085CFF"/>
<stop offset="1" stop-color="#A108FF"/>
</linearGradient>
<clipPath id="clip0">
<rect width="180" height="80" fill="white"/>
</clipPath>
</defs>
</svg>
