<svg width="24" height="24" viewBox="0 0 24 24" fill="none" xmlns="http://www.w3.org/2000/svg">
<path fill-rule="evenodd" clip-rule="evenodd" d="M5 18C5 18.3008 5.10727 18.5689 5.26811 18.7498C5.42554 18.927 5.61205 19 5.77778 19H18.2222C18.3879 19 18.5745 18.927 18.7319 18.7498C18.8927 18.5689 19 18.3008 19 18V14C19 13.4477 19.4477 13 20 13C20.5523 13 21 13.4477 21 14V18C21 18.7601 20.7327 19.5094 20.2267 20.0786C19.7173 20.6516 18.9995 21 18.2222 21H5.77778C5.00051 21 4.28265 20.6516 3.77329 20.0786C3.26733 19.5094 3 18.7601 3 18L3 14C3 13.4477 3.44772 13 4 13C4.55228 13 5 13.4477 5 14V18Z" fill="black"/>
<path fill-rule="evenodd" clip-rule="evenodd" d="M6.29289 9.70711C5.90237 9.31658 5.90237 8.68342 6.29289 8.29289L11.2929 3.29289C11.6834 2.90237 12.3166 2.90237 12.7071 3.29289L17.7071 8.29289C18.0976 8.68342 18.0976 9.31658 17.7071 9.70711C17.3166 10.0976 16.6834 10.0976 16.2929 9.70711L12 5.41421L7.70711 9.70711C7.31658 10.0976 6.68342 10.0976 6.29289 9.70711Z" fill="black"/>
<path fill-rule="evenodd" clip-rule="evenodd" d="M12 17C11.4477 17 11 16.5523 11 16V4C11 3.44771 11.4477 3 12 3C12.5523 3 13 3.44771 13 4V16C13 16.5523 12.5523 17 12 17Z" fill="black"/>
</svg>
