<svg width="104" height="111" viewBox="0 0 104 111" fill="none" xmlns="http://www.w3.org/2000/svg">
<g filter="url(#filter0_d)">
<path d="M16.606 23.4276C16.606 17.5181 21.4631 12.7275 27.4547 12.7275H76.5451C82.5367 12.7275 87.3938 17.5181 87.3938 23.4276V55.3942C87.3938 74.674 71.5474 90.3033 51.9999 90.3033C32.4524 90.3033 16.606 74.674 16.606 55.3942V23.4276Z" fill="url(#paint0_linear)"/>
</g>
<g opacity="0.6">
<path d="M41.1835 61.2119V62.5783C41.1835 62.8193 41.1748 63.0485 41.1573 63.2659C41.1456 63.4775 41.1339 63.6273 41.1222 63.7155H41.1923C41.3441 63.4687 41.5396 63.2894 41.7789 63.1778C42.0183 63.0661 42.2839 63.0103 42.5757 63.0103C43.0894 63.0103 43.5038 63.1513 43.8191 63.4334C44.1343 63.7096 44.2919 64.1563 44.2919 64.7733V67.9116H42.9873V65.0995C42.9873 64.406 42.7304 64.0593 42.2167 64.0593C41.8256 64.0593 41.5542 64.1974 41.4024 64.4736C41.2565 64.744 41.1835 65.1348 41.1835 65.6461V67.9116H39.8789V61.2119H41.1835Z" fill="white"/>
<path d="M49.9764 65.4962C49.9764 66.2955 49.7663 66.9126 49.346 67.3475C48.9316 67.7823 48.3654 67.9998 47.6474 67.9998C47.2037 67.9998 46.8068 67.9028 46.4566 67.7089C46.1122 67.5149 45.8407 67.2329 45.6423 66.8626C45.4438 66.4865 45.3446 66.031 45.3446 65.4962C45.3446 64.6969 45.5518 64.0828 45.9662 63.6538C46.3807 63.2248 46.9498 63.0103 47.6736 63.0103C48.1231 63.0103 48.52 63.1072 48.8644 63.3012C49.2088 63.4951 49.4803 63.7772 49.6787 64.1475C49.8772 64.5177 49.9764 64.9673 49.9764 65.4962ZM46.6755 65.4962C46.6755 65.9722 46.7514 66.3337 46.9031 66.5805C47.0607 66.8215 47.3147 66.9419 47.6649 66.9419C48.0093 66.9419 48.2574 66.8215 48.4091 66.5805C48.5667 66.3337 48.6455 65.9722 48.6455 65.4962C48.6455 65.0202 48.5667 64.6646 48.4091 64.4295C48.2574 64.1886 48.0064 64.0681 47.6561 64.0681C47.3117 64.0681 47.0607 64.1886 46.9031 64.4295C46.7514 64.6646 46.6755 65.0202 46.6755 65.4962Z" fill="white"/>
<path d="M55.4414 63.0984V67.9116H54.4432L54.2681 67.2946H54.198C54.0463 67.5414 53.8361 67.7206 53.5676 67.8323C53.3049 67.944 53.0247 67.9998 52.727 67.9998C52.2133 67.9998 51.8018 67.8617 51.4924 67.5855C51.1831 67.3034 51.0284 66.8538 51.0284 66.2367V63.0984H52.333V65.9105C52.333 66.2573 52.3943 66.5188 52.5169 66.6951C52.6395 66.8655 52.835 66.9508 53.1035 66.9508C53.5005 66.9508 53.7719 66.8156 53.9178 66.5452C54.0638 66.269 54.1367 65.8753 54.1367 65.364V63.0984H55.4414Z" fill="white"/>
<path d="M59.4798 63.0103C59.544 63.0103 59.6199 63.0132 59.7075 63.0191C59.795 63.025 59.8651 63.0338 59.9176 63.0455L59.8213 64.2797C59.7746 64.2679 59.7133 64.2591 59.6374 64.2532C59.5615 64.2415 59.4944 64.2356 59.436 64.2356C59.2142 64.2356 59.0012 64.2767 58.7969 64.359C58.5925 64.4354 58.4262 64.5618 58.2978 64.7381C58.1752 64.9144 58.1139 65.1553 58.1139 65.461V67.9116H56.8093V63.0984H57.7987L57.9913 63.9094H58.0526C58.1927 63.6626 58.3853 63.451 58.6305 63.2747C58.8757 63.0984 59.1588 63.0103 59.4798 63.0103Z" fill="white"/>
<path d="M64.1213 66.4835C64.1213 66.9713 63.9491 67.3475 63.6047 67.6119C63.2662 67.8705 62.7583 67.9998 62.0812 67.9998C61.7485 67.9998 61.4625 67.9763 61.2231 67.9293C60.9838 67.8881 60.7445 67.8176 60.5051 67.7177V66.6334C60.762 66.7509 61.0393 66.8479 61.337 66.9243C61.6347 67.0007 61.8973 67.0389 62.125 67.0389C62.376 67.0389 62.5569 67.0007 62.6679 66.9243C62.7788 66.8479 62.8342 66.748 62.8342 66.6246C62.8342 66.5423 62.8109 66.4688 62.7642 66.4042C62.7233 66.3396 62.6299 66.2661 62.484 66.1838C62.338 66.1015 62.1104 65.9958 61.801 65.8665C61.4975 65.7372 61.2494 65.6108 61.0568 65.4874C60.87 65.3581 60.7299 65.2053 60.6365 65.029C60.5431 64.8468 60.4964 64.6205 60.4964 64.3502C60.4964 63.9036 60.6686 63.5686 61.013 63.3452C61.3574 63.1219 61.8156 63.0103 62.3877 63.0103C62.6854 63.0103 62.9685 63.0396 63.237 63.0984C63.5055 63.1572 63.7828 63.2542 64.0688 63.3893L63.6748 64.3326C63.4413 64.2327 63.2195 64.1504 63.0093 64.0857C62.7992 64.0152 62.5861 63.98 62.3701 63.98C61.9849 63.98 61.7923 64.0857 61.7923 64.2973C61.7923 64.3737 61.8156 64.4442 61.8623 64.5089C61.9148 64.5677 62.0112 64.6323 62.1513 64.7028C62.2972 64.7733 62.5102 64.8674 62.7904 64.9849C63.0648 65.0966 63.3012 65.2141 63.4997 65.3375C63.6981 65.4551 63.8499 65.6049 63.955 65.7871C64.0659 65.9693 64.1213 66.2014 64.1213 66.4835Z" fill="white"/>
</g>
<g filter="url(#filter1_d)">
<path fill-rule="evenodd" clip-rule="evenodd" d="M76.5451 15.5485H27.4547C23.0427 15.5485 19.4661 19.0761 19.4661 23.4276V55.3942C19.4661 73.116 34.032 87.4824 51.9999 87.4824C69.9678 87.4824 84.5337 73.116 84.5337 55.3942V23.4276C84.5337 19.0761 80.9571 15.5485 76.5451 15.5485ZM27.4547 12.7275C21.4631 12.7275 16.606 17.5181 16.606 23.4276V55.3942C16.606 74.674 32.4524 90.3033 51.9999 90.3033C71.5474 90.3033 87.3938 74.674 87.3938 55.3942V23.4276C87.3938 17.5181 82.5367 12.7275 76.5451 12.7275H27.4547Z" fill="white" fill-opacity="0.3"/>
</g>
<g filter="url(#filter2_d)">
<path d="M34.3293 43.7899C34.7189 43.7899 35.1162 43.7747 35.5213 43.7442C35.942 43.6984 36.3237 43.6374 36.6665 43.5612C37.0093 43.4849 37.2897 43.3858 37.5079 43.2638C37.7416 43.1265 37.8585 42.9664 37.8585 42.7834C37.8585 42.5699 37.7883 42.3945 37.6481 42.2572C37.2586 42.3945 36.8223 42.5165 36.3393 42.6232C35.8719 42.7147 35.272 42.7605 34.5397 42.7605C33.8229 42.7605 33.1374 42.6385 32.483 42.3945C31.8286 42.1504 31.2521 41.7844 30.7535 41.2964C30.2549 40.7931 29.8575 40.1678 29.5615 39.4205C29.2655 38.6732 29.1174 37.7886 29.1174 36.7668C29.1174 35.8975 29.2031 35.1807 29.3745 34.6164C29.5303 34.0521 29.7173 33.5259 29.9354 33.0379C30.7457 32.9464 31.5325 32.8244 32.296 32.6719C33.0595 32.5041 33.7996 32.2448 34.5163 31.8941C35.233 31.5433 35.9186 31.0781 36.573 30.4986C37.2274 29.9038 37.8507 29.1412 38.4428 28.2109H42.6263C43.2495 28.2109 43.8105 28.2643 44.3091 28.371C44.8077 28.4778 45.2361 28.6761 45.5945 28.9658C45.9529 29.2404 46.2255 29.6293 46.4125 30.1325C46.6151 30.6358 46.7164 31.284 46.7164 32.0771V56.3721C45.9061 57.1042 44.9713 57.6532 43.9117 58.0193C42.8522 58.3853 41.7849 58.5683 40.7098 58.5683C39.884 58.5683 39.0816 58.4616 38.3025 58.248C37.539 58.0498 36.8613 57.7295 36.2692 57.2872C35.6771 56.8449 35.2019 56.2806 34.8435 55.5943C34.5007 54.8928 34.3293 54.054 34.3293 53.0779V43.7899Z" fill="url(#paint1_linear)"/>
<path d="M61.4405 58.5226C59.4306 58.5226 57.5998 58.2023 55.9482 57.5617C54.2966 56.9059 52.8787 55.9375 51.6945 54.6564C50.5259 53.3753 49.6144 51.7892 48.96 49.898C48.3212 48.0069 48.0018 45.8107 48.0018 43.3095C48.0018 40.9151 48.3368 38.7647 49.0068 36.8583C49.6768 34.9519 50.6116 33.3353 51.8114 32.0084C53.0111 30.6816 54.429 29.6674 56.065 28.9658C57.7011 28.249 59.4929 27.8906 61.4405 27.8906C63.3726 27.8906 65.1567 28.249 66.7927 28.9658C68.4443 29.6674 69.87 30.6816 71.0697 32.0084C72.2695 33.3353 73.2043 34.9519 73.8743 36.8583C74.5443 38.7647 74.8793 40.9151 74.8793 43.3095C74.8793 45.8107 74.5521 48.0069 73.8977 49.898C73.2589 51.7892 72.3474 53.3753 71.1632 54.6564C69.9946 55.9375 68.5845 56.9059 66.9329 57.5617C65.2813 58.2023 63.4505 58.5226 61.4405 58.5226ZM66.1149 48.6856C65.9279 48.5483 65.663 48.3272 65.3203 48.0221C64.9775 47.7171 64.5957 47.3587 64.175 46.9469C63.7699 46.5352 63.3414 46.0852 62.8896 45.5972C62.4533 45.0939 62.0404 44.583 61.6509 44.0645C61.3237 43.6222 60.9887 43.1265 60.6459 42.5775C60.3031 42.0284 59.9837 41.4946 59.6877 40.9761C59.3916 40.4423 59.1345 39.9619 58.9164 39.5349C58.6983 39.1078 58.558 38.7876 58.4957 38.5741C58.0127 38.5741 57.7712 38.8486 57.7712 39.3976C57.7712 39.6111 57.8335 39.9009 57.9582 40.2669C58.0984 40.6177 58.2854 41.0219 58.5191 41.4794C58.7528 41.9369 59.0333 42.425 59.3605 42.9435C59.6877 43.462 60.046 43.9806 60.4356 44.4991L60.7628 44.9338C61.2614 45.6048 61.7444 46.2073 62.2118 46.741C62.6948 47.2748 63.1389 47.7247 63.544 48.0908C63.9647 48.4568 64.3386 48.7389 64.6658 48.9372C64.993 49.1355 65.2657 49.2346 65.4839 49.2346C65.6085 49.2346 65.7332 49.1965 65.8578 49.1202C65.998 49.044 66.0837 48.8991 66.1149 48.6856Z" fill="url(#paint2_linear)"/>
</g>
<g filter="url(#filter3_d)">
<path fill-rule="evenodd" clip-rule="evenodd" d="M29.3745 34.6164C29.2031 35.1807 29.1174 35.8975 29.1174 36.7668C29.1174 37.7886 29.2655 38.6732 29.5615 39.4205C29.8575 40.1678 30.2549 40.7931 30.7535 41.2964C31.2521 41.7844 31.8286 42.1504 32.483 42.3945C33.1374 42.6385 33.8229 42.7605 34.5397 42.7605C35.272 42.7605 35.8719 42.7147 36.3393 42.6232C36.8223 42.5165 37.2586 42.3945 37.6481 42.2572C37.7883 42.3945 37.8585 42.5699 37.8585 42.7834C37.8585 42.7993 37.8576 42.815 37.8558 42.8306C37.8514 42.8691 37.8417 42.9066 37.8264 42.943C37.7772 43.0611 37.671 43.168 37.5079 43.2638C37.2898 43.3858 37.0093 43.4849 36.6665 43.5612C36.3237 43.6374 35.942 43.6984 35.5213 43.7442C35.1162 43.7747 34.7189 43.7899 34.3293 43.7899V53.0779C34.3293 54.054 34.5007 54.8928 34.8435 55.5943C35.2019 56.2806 35.6771 56.8449 36.2692 57.2872C36.8613 57.7295 37.539 58.0498 38.3025 58.248C39.0816 58.4616 39.884 58.5683 40.7098 58.5683C41.7849 58.5683 42.8522 58.3853 43.9117 58.0193C44.9713 57.6532 45.9061 57.1042 46.7164 56.3721V32.0771C46.7164 31.284 46.6151 30.6358 46.4125 30.1325C46.2255 29.6293 45.9529 29.2404 45.5945 28.9658C45.2361 28.6761 44.8077 28.4778 44.3091 28.371C43.8105 28.2643 43.2495 28.2109 42.6263 28.2109H38.4428C37.8507 29.1412 37.2274 29.9038 36.573 30.4986C35.9186 31.0781 35.233 31.5433 34.5163 31.8941C33.7996 32.2448 33.0595 32.5041 32.296 32.6719C31.5325 32.8244 30.7457 32.9464 29.9354 33.0379C29.7173 33.5259 29.5303 34.0521 29.3745 34.6164ZM30.4355 33.6883C31.1185 33.6017 31.7861 33.4933 32.4379 33.3631L32.4447 33.3617L32.4515 33.3602C33.2725 33.1798 34.067 32.9012 34.8341 32.5258C35.6142 32.144 36.3529 31.6413 37.0507 31.0233L37.0542 31.0203L37.0576 31.0172C37.6864 30.4456 38.2769 29.7425 38.8324 28.9161H42.6263C43.2093 28.9161 43.7181 28.9662 44.1574 29.0602C44.5567 29.1457 44.879 29.2992 45.1412 29.5112L45.1485 29.5171L45.1559 29.5228C45.389 29.7014 45.5911 29.9714 45.7411 30.3752L45.7444 30.384L45.7479 30.3927C45.9055 30.7842 46.0013 31.3354 46.0013 32.0771V56.0532C45.3191 56.6198 44.5454 57.0531 43.6754 57.3537C42.6884 57.6946 41.7009 57.8631 40.7098 57.8631C39.9473 57.8631 39.2094 57.7646 38.494 57.5685L38.4893 57.5673L38.4846 57.566C37.8057 57.3897 37.2139 57.1082 36.7009 56.725C36.201 56.3516 35.7951 55.8736 35.4836 55.2798C35.2003 54.6962 35.0444 53.9699 35.0444 53.0779V44.4792C35.2202 44.4714 35.3974 44.4608 35.5757 44.4474L35.5877 44.4465L35.5997 44.4452C36.0417 44.3971 36.4504 44.3322 36.8238 44.2491C37.2099 44.1632 37.5624 44.044 37.8606 43.8772L37.8672 43.8736L37.8737 43.8697C38.2139 43.67 38.5735 43.3196 38.5735 42.7834C38.5735 42.4017 38.4409 42.0396 38.1518 41.7566L37.8319 41.4435L37.4076 41.5931C37.0526 41.7182 36.6479 41.832 36.1917 41.9331C35.7884 42.0112 35.2424 42.0553 34.5397 42.0553C33.9072 42.0553 33.3074 41.9479 32.7358 41.7348C32.1775 41.5266 31.6877 41.2162 31.261 40.7996C30.84 40.3735 30.4927 39.8332 30.2275 39.1638C29.9714 38.5173 29.8325 37.7238 29.8325 36.7668C29.8325 35.9367 29.9151 35.2942 30.0595 34.8188L30.0621 34.8103L30.0644 34.8017C30.173 34.4085 30.2968 34.0376 30.4355 33.6883ZM56.065 28.9658C54.429 29.6674 53.0111 30.6816 51.8114 32.0084C50.6116 33.3353 49.6768 34.9519 49.0068 36.8583C48.3368 38.7647 48.0018 40.9151 48.0018 43.3095C48.0018 45.8107 48.3212 48.0069 48.96 49.898C49.6144 51.7892 50.5259 53.3753 51.6945 54.6564C52.8787 55.9375 54.2966 56.9059 55.9482 57.5617C57.5998 58.2023 59.4306 58.5226 61.4405 58.5226C63.4505 58.5226 65.2813 58.2023 66.9329 57.5617C68.5845 56.9059 69.9946 55.9375 71.1632 54.6564C72.3474 53.3753 73.2589 51.7892 73.8977 49.898C74.5521 48.0069 74.8793 45.8107 74.8793 43.3095C74.8793 40.9151 74.5443 38.7647 73.8743 36.8583C73.2043 34.9519 72.2695 33.3353 71.0697 32.0084C69.87 30.6816 68.4443 29.6674 66.7927 28.9658C65.1567 28.249 63.3726 27.8906 61.4405 27.8906C59.4929 27.8906 57.7011 28.249 56.065 28.9658ZM66.6684 56.9065C68.2198 56.2901 69.538 55.3836 70.6316 54.1847L70.6348 54.1813C71.7423 52.9831 72.6074 51.4867 73.2193 49.6751L73.2201 49.6727L73.221 49.6702C73.8445 47.8682 74.1643 45.7519 74.1643 43.3095C74.1643 40.9794 73.8382 38.909 73.1987 37.0893C72.5555 35.259 71.6651 33.7265 70.5361 32.4778C69.4056 31.2276 68.0654 30.2743 66.5098 29.6136L66.5061 29.612L66.5024 29.6103C64.9648 28.9367 63.2806 28.5959 61.4405 28.5959C59.584 28.5959 57.8922 28.937 56.3553 29.6103L56.3527 29.6115L56.3501 29.6126C54.81 30.273 53.4767 31.2263 52.345 32.4778C51.216 33.7265 50.3256 35.259 49.6824 37.0893C49.0429 38.909 48.7168 40.9794 48.7168 43.3095C48.7168 45.7523 49.0289 47.8695 49.6376 49.6726C50.2653 51.4859 51.1312 52.9839 52.2245 54.1829C53.3344 55.3832 54.6612 56.2901 56.2127 56.9065C57.7699 57.51 59.5095 57.8173 61.4405 57.8173C63.3716 57.8173 65.1112 57.51 66.6684 56.9065ZM66.8833 48.3705L66.8226 48.786C66.7728 49.1274 66.6105 49.5076 66.2204 49.7282C66.0061 49.8564 65.7576 49.9398 65.4839 49.9398C65.0672 49.9398 64.6568 49.7594 64.2916 49.5381C63.9175 49.3114 63.5098 49.0014 63.071 48.6196L63.066 48.6153L63.061 48.6108C62.6337 48.2247 62.1726 47.7568 61.6783 47.2106L61.6745 47.2064L61.6707 47.202C61.1893 46.6523 60.6949 46.0355 60.1875 45.3527C60.187 45.352 60.1865 45.3513 60.186 45.3506L59.8615 44.9195L59.861 44.919C59.4607 44.386 59.0914 43.8517 58.7534 43.3161C58.4169 42.7829 58.1255 42.2763 57.8805 41.7967C57.6402 41.3263 57.4434 40.9019 57.293 40.5256L57.2862 40.5087L57.2803 40.4915C57.1476 40.1016 57.0562 39.7258 57.0562 39.3976C57.0562 39.037 57.1333 38.6349 57.4122 38.3178C57.708 37.9815 58.1155 37.8688 58.4957 37.8688H59.0339L59.1828 38.3789C59.2255 38.525 59.3394 38.7956 59.555 39.2176C59.7681 39.6349 60.0206 40.1067 60.3128 40.6338C60.6033 41.1425 60.9173 41.6671 61.2548 42.2077C61.5888 42.7428 61.9129 43.2221 62.2269 43.6466C62.6036 44.148 63.0031 44.6425 63.4255 45.1302C63.8685 45.6086 64.2879 46.0488 64.6835 46.4511C65.0964 46.8551 65.4681 47.2039 65.7992 47.4985C66.1381 47.8001 66.3828 48.0031 66.5418 48.1198L66.8833 48.3705ZM64.175 46.9469C64.5957 47.3587 64.9775 47.7171 65.3203 48.0221C65.663 48.3272 65.9279 48.5483 66.1149 48.6856C66.0837 48.8991 65.998 49.044 65.8578 49.1202C65.8191 49.1439 65.7803 49.164 65.7416 49.1803C65.7074 49.1947 65.6732 49.2062 65.6391 49.2149C65.5873 49.228 65.5356 49.2346 65.4839 49.2346C65.2657 49.2346 64.9931 49.1355 64.6658 48.9372C64.3386 48.7389 63.9647 48.4568 63.544 48.0908C63.1389 47.7247 62.6948 47.2748 62.2118 46.741C61.7444 46.2073 61.2614 45.6048 60.7628 44.9338L60.4356 44.4991C60.046 43.9806 59.6877 43.462 59.3605 42.9435C59.0333 42.425 58.7528 41.9369 58.5191 41.4794C58.2854 41.0219 58.0984 40.6177 57.9582 40.2669C57.8335 39.9009 57.7712 39.6111 57.7712 39.3976C57.7712 39.2065 57.8005 39.0486 57.859 38.924C57.9014 38.8338 57.9591 38.761 58.0322 38.7057C58.1481 38.6179 58.3026 38.5741 58.4957 38.5741C58.558 38.7876 58.6983 39.1078 58.9164 39.5349C59.1345 39.9619 59.3916 40.4423 59.6877 40.9761C59.9837 41.4947 60.3031 42.0284 60.6459 42.5775C60.9887 43.1265 61.3237 43.6222 61.6509 44.0645C62.0404 44.583 62.4533 45.0939 62.8896 45.5972C63.3414 46.0852 63.7699 46.5352 64.175 46.9469Z" fill="white" fill-opacity="0.8"/>
</g>
<path d="M73.8092 20.1328L74.7193 23.4666L78.0994 24.3642L74.7193 25.2618L73.8092 28.5956L72.8991 25.2618L69.519 24.3642L72.8991 23.4666L73.8092 20.1328Z" fill="#F9FCFF"/>
<path d="M28.2268 24.0117L28.7956 26.0953L30.9081 26.6563L28.7956 27.2174L28.2268 29.301L27.658 27.2174L25.5454 26.6563L27.658 26.0953L28.2268 24.0117Z" fill="#F5FAFF"/>
<path d="M49.4966 74.4355L50.3056 76.4586L52.3567 77.2565L50.3056 78.0544L49.4966 80.0774L48.6876 78.0544L46.6365 77.2565L48.6876 76.4586L49.4966 74.4355Z" fill="#A4CEFF"/>
<defs>
<filter id="filter0_d" x="8.60596" y="4.72754" width="86.7879" height="93.5758" filterUnits="userSpaceOnUse" color-interpolation-filters="sRGB">
<feFlood flood-opacity="0" result="BackgroundImageFix"/>
<feColorMatrix in="SourceAlpha" type="matrix" values="0 0 0 0 0 0 0 0 0 0 0 0 0 0 0 0 0 0 127 0"/>
<feOffset/>
<feGaussianBlur stdDeviation="4"/>
<feColorMatrix type="matrix" values="0 0 0 0 0.329412 0 0 0 0 0.509804 0 0 0 0 0.847059 0 0 0 0.4 0"/>
<feBlend mode="normal" in2="BackgroundImageFix" result="effect1_dropShadow"/>
<feBlend mode="normal" in="SourceGraphic" in2="effect1_dropShadow" result="shape"/>
</filter>
<filter id="filter1_d" x="0.605957" y="0.727539" width="102.788" height="109.576" filterUnits="userSpaceOnUse" color-interpolation-filters="sRGB">
<feFlood flood-opacity="0" result="BackgroundImageFix"/>
<feColorMatrix in="SourceAlpha" type="matrix" values="0 0 0 0 0 0 0 0 0 0 0 0 0 0 0 0 0 0 127 0"/>
<feOffset dy="4"/>
<feGaussianBlur stdDeviation="8"/>
<feColorMatrix type="matrix" values="0 0 0 0 0 0 0 0 0 0 0 0 0 0 0 0 0 0 0.08 0"/>
<feBlend mode="normal" in2="BackgroundImageFix" result="effect1_dropShadow"/>
<feBlend mode="normal" in="SourceGraphic" in2="effect1_dropShadow" result="shape"/>
</filter>
<filter id="filter2_d" x="13.1174" y="15.8906" width="77.7619" height="62.6777" filterUnits="userSpaceOnUse" color-interpolation-filters="sRGB">
<feFlood flood-opacity="0" result="BackgroundImageFix"/>
<feColorMatrix in="SourceAlpha" type="matrix" values="0 0 0 0 0 0 0 0 0 0 0 0 0 0 0 0 0 0 127 0"/>
<feOffset dy="4"/>
<feGaussianBlur stdDeviation="8"/>
<feColorMatrix type="matrix" values="0 0 0 0 0.305882 0 0 0 0 0.486275 0 0 0 0 0.827451 0 0 0 0.5 0"/>
<feBlend mode="normal" in2="BackgroundImageFix" result="effect1_dropShadow"/>
<feBlend mode="normal" in="SourceGraphic" in2="effect1_dropShadow" result="shape"/>
</filter>
<filter id="filter3_d" x="13.1174" y="15.8906" width="77.7619" height="62.6777" filterUnits="userSpaceOnUse" color-interpolation-filters="sRGB">
<feFlood flood-opacity="0" result="BackgroundImageFix"/>
<feColorMatrix in="SourceAlpha" type="matrix" values="0 0 0 0 0 0 0 0 0 0 0 0 0 0 0 0 0 0 127 0"/>
<feOffset dy="4"/>
<feGaussianBlur stdDeviation="8"/>
<feColorMatrix type="matrix" values="0 0 0 0 0.305882 0 0 0 0 0.486275 0 0 0 0 0.827451 0 0 0 0.5 0"/>
<feBlend mode="normal" in2="BackgroundImageFix" result="effect1_dropShadow"/>
<feBlend mode="normal" in="SourceGraphic" in2="effect1_dropShadow" result="shape"/>
</filter>
<linearGradient id="paint0_linear" x1="51.9999" y1="12.7275" x2="51.9999" y2="90.3033" gradientUnits="userSpaceOnUse">
<stop stop-color="#77A7FF"/>
<stop offset="1" stop-color="#4573C9"/>
</linearGradient>
<linearGradient id="paint1_linear" x1="51.9984" y1="27.8906" x2="51.9984" y2="58.5683" gradientUnits="userSpaceOnUse">
<stop stop-color="white"/>
<stop offset="1" stop-color="#9DCAFF"/>
</linearGradient>
<linearGradient id="paint2_linear" x1="51.9984" y1="27.8906" x2="51.9984" y2="58.5683" gradientUnits="userSpaceOnUse">
<stop stop-color="white"/>
<stop offset="1" stop-color="#9DCAFF"/>
</linearGradient>
</defs>
</svg>
