<svg xmlns="http://www.w3.org/2000/svg" width="100" height="100" fill="none" viewBox="0 0 100 100">
    <rect width="100" height="100" fill="#FFEECE" rx="40"/>
    <g filter="url(#filter0_f)" opacity=".5">
        <ellipse cx="50.5" cy="82.5" fill="#EEC457" rx="12.5" ry="2.5"/>
    </g>
    <g filter="url(#filter1_diiii)">
        <path fill="url(#paint0_linear)" d="M54.508 20.498c-16.5-3.5-29.335 12.063-27.294 27.5 2.11 15.966 24.994 34.1 37.794 16.5 16-22 6-40.5-10.5-44z"/>
        <path stroke="#fff" stroke-opacity=".5" stroke-width="2" d="M28.205 47.868c-.98-7.412 1.614-14.867 6.434-20.04 4.806-5.157 11.794-8.02 19.661-6.352 7.939 1.684 14.255 6.957 16.695 14.396 2.437 7.43 1.068 17.225-6.796 28.038-3.057 4.203-6.654 6.203-10.33 6.689-3.706.489-7.612-.544-11.271-2.632-7.356-4.199-13.385-12.472-14.393-20.1z"/>
    </g>
    <path fill="#fff" fill-rule="evenodd" d="M52.367 40.267c2.282 0 4.133-1.85 4.133-4.134 0-2.282-1.85-4.133-4.133-4.133-1.557 0-2.912.86-3.617 2.13-.705-1.27-2.06-2.13-3.617-2.13C42.851 32 41 33.852 41 36.135c0 2.283 1.85 4.133 4.133 4.133 1.557 0 2.912-.86 3.617-2.13.705 1.27 2.06 2.13 3.617 2.13z" clip-rule="evenodd"/>
    <circle cx="52.367" cy="36.133" r="1.55" fill="#000"/>
    <circle cx="45.133" cy="36.133" r="1.55" fill="#000"/>
    <rect width="6.2" height="1.55" x="45.65" y="42.333" fill="#000" rx=".775"/>
    <defs>
        <filter id="filter0_f" width="33" height="13" x="34" y="76" color-interpolation-filters="sRGB" filterUnits="userSpaceOnUse">
            <feFlood flood-opacity="0" result="BackgroundImageFix"/>
            <feBlend in="SourceGraphic" in2="BackgroundImageFix" result="shape"/>
            <feGaussianBlur result="effect1_foregroundBlur" stdDeviation="2"/>
        </filter>
        <filter id="filter1_diiii" width="62.09" height="67.719" x="19" y="12" color-interpolation-filters="sRGB" filterUnits="userSpaceOnUse">
            <feFlood flood-opacity="0" result="BackgroundImageFix"/>
            <feColorMatrix in="SourceAlpha" values="0 0 0 0 0 0 0 0 0 0 0 0 0 0 0 0 0 0 127 0"/>
            <feOffset/>
            <feGaussianBlur stdDeviation="4"/>
            <feColorMatrix values="0 0 0 0 0 0 0 0 0 0 0 0 0 0 0 0 0 0 0.08 0"/>
            <feBlend in2="BackgroundImageFix" result="effect1_dropShadow"/>
            <feBlend in="SourceGraphic" in2="effect1_dropShadow" result="shape"/>
            <feColorMatrix in="SourceAlpha" result="hardAlpha" values="0 0 0 0 0 0 0 0 0 0 0 0 0 0 0 0 0 0 127 0"/>
            <feOffset dx="-8" dy="-8"/>
            <feGaussianBlur stdDeviation="16"/>
            <feComposite in2="hardAlpha" k2="-1" k3="1" operator="arithmetic"/>
            <feColorMatrix values="0 0 0 0 0.709163 0 0 0 0 0.709163 0 0 0 0 0.709163 0 0 0 0.5 0"/>
            <feBlend in2="shape" result="effect2_innerShadow"/>
            <feColorMatrix in="SourceAlpha" result="hardAlpha" values="0 0 0 0 0 0 0 0 0 0 0 0 0 0 0 0 0 0 127 0"/>
            <feOffset dx="-4" dy="-4"/>
            <feGaussianBlur stdDeviation="8"/>
            <feComposite in2="hardAlpha" k2="-1" k3="1" operator="arithmetic"/>
            <feColorMatrix values="0 0 0 0 1 0 0 0 0 0.441667 0 0 0 0 0.441667 0 0 0 1 0"/>
            <feBlend in2="effect2_innerShadow" result="effect3_innerShadow"/>
            <feColorMatrix in="SourceAlpha" result="hardAlpha" values="0 0 0 0 0 0 0 0 0 0 0 0 0 0 0 0 0 0 127 0"/>
            <feOffset dx="4" dy="4"/>
            <feGaussianBlur stdDeviation="12"/>
            <feComposite in2="hardAlpha" k2="-1" k3="1" operator="arithmetic"/>
            <feColorMatrix values="0 0 0 0 1 0 0 0 0 1 0 0 0 0 1 0 0 0 0.5 0"/>
            <feBlend in2="effect3_innerShadow" result="effect4_innerShadow"/>
            <feColorMatrix in="SourceAlpha" result="hardAlpha" values="0 0 0 0 0 0 0 0 0 0 0 0 0 0 0 0 0 0 127 0"/>
            <feOffset dx="2" dy="2"/>
            <feGaussianBlur stdDeviation="5"/>
            <feComposite in2="hardAlpha" k2="-1" k3="1" operator="arithmetic"/>
            <feColorMatrix values="0 0 0 0 1 0 0 0 0 1 0 0 0 0 1 0 0 0 0.8 0"/>
            <feBlend in2="effect4_innerShadow" result="effect5_innerShadow"/>
        </filter>
        <linearGradient id="paint0_linear" x1="27" x2="81.888" y1="20" y2="32.229" gradientUnits="userSpaceOnUse">
            <stop stop-color="#FFF508"/>
            <stop offset="1" stop-color="#FFC83C"/>
        </linearGradient>
    </defs>
</svg>
