<svg xmlns="http://www.w3.org/2000/svg" width="100" height="100" fill="none" viewBox="0 0 100 100">
    <rect width="100" height="100" fill="#D7FFE5" rx="40"/>
    <g filter="url(#filter0_diiii)">
        <path fill="url(#paint0_linear)" d="M77.71 28.564c-9.281-6.271-32.136-8.442-39.337 9.191-7.2 17.634-.832 32.744 14.574 35.71 15.405 2.966 32.057-6.343 33.885-23.593.77-7.267-2.397-16.763-9.122-21.308z"/>
        <path stroke="#fff" stroke-opacity=".5" stroke-width="2" d="M39.299 38.133c3.426-8.39 10.56-12.096 18.075-12.944 7.562-.854 15.353 1.215 19.776 4.204 6.35 4.291 9.429 13.384 8.688 20.374-1.754 16.552-17.752 25.595-32.702 22.716-7.392-1.423-12.547-5.73-15.029-11.753-2.494-6.052-2.335-13.958 1.192-22.596z"/>
    </g>
    <path fill="#fff" fill-rule="evenodd" d="M73.6 51.496c2.43.341 4.675-1.351 5.017-3.78.34-2.429-1.351-4.675-3.78-5.016-1.657-.233-3.227.48-4.168 1.727-.56-1.458-1.873-2.576-3.53-2.809-2.428-.341-4.674 1.351-5.016 3.78-.341 2.43 1.351 4.675 3.78 5.016 1.656.233 3.227-.48 4.167-1.726.56 1.457 1.874 2.575 3.53 2.808z" clip-rule="evenodd"/>
    <circle cx="74.218" cy="47.098" r="1.665" fill="#000" transform="rotate(8 74.218 47.098)"/>
    <circle cx="66.522" cy="46.016" r="1.665" fill="#000" transform="rotate(8 66.522 46.016)"/>
    <rect width="6.662" height="1.665" x="66.239" y="52.446" fill="#000" rx=".833" transform="rotate(8 66.24 52.446)"/>
    <g filter="url(#filter1_diiii)">
        <path fill="url(#paint1_linear)" fill-rule="evenodd" d="M28.134 16.38c10.893-3.221 22.574 1.993 28.049 11.361 4.699 8.042-.81 17.251-7.088 24.508-6.026 6.963-14.379 13.311-23.124 10.407-9.223-3.063-13.019-12.838-12.578-22.265.474-10.157 4.544-20.997 14.741-24.012z" clip-rule="evenodd"/>
        <path stroke="#fff" stroke-opacity=".5" stroke-width="2" d="M28.418 17.338c10.423-3.081 21.644 1.91 26.901 10.908 2.154 3.686 2.004 7.666.5 11.693-1.513 4.051-4.37 8.061-7.48 11.655-2.972 3.434-6.473 6.662-10.256 8.676-3.768 2.006-7.755 2.78-11.796 1.437-8.611-2.86-12.326-12.056-11.895-21.27.469-10.041 4.47-20.274 14.026-23.099z"/>
    </g>
    <path fill="#fff" fill-rule="evenodd" d="M37.219 33.31c2.15-.576 3.427-2.787 2.85-4.937-.576-2.15-2.786-3.427-4.937-2.85-1.466.392-2.526 1.545-2.869 2.92-.985-1.018-2.478-1.486-3.944-1.093-2.15.576-3.427 2.786-2.85 4.937.576 2.15 2.786 3.426 4.936 2.85 1.467-.393 2.526-1.545 2.87-2.92.985 1.018 2.478 1.486 3.944 1.093z" clip-rule="evenodd"/>
    <circle cx="36.175" cy="29.416" r="1.512" fill="#000" transform="rotate(-15 36.175 29.416)"/>
    <circle cx="29.362" cy="31.242" r="1.512" fill="#000" transform="rotate(-15 29.362 31.242)"/>
    <rect width="5.291" height=".756" x="31.876" y="37.219" fill="#000" stroke="#000" stroke-width=".756" rx=".378" transform="rotate(-15 31.876 37.22)"/>
    <rect width="5.291" height=".756" x="25.73" y="27.912" fill="#000" stroke="#000" stroke-width=".756" rx=".378" transform="rotate(-15 25.73 27.912)"/>
    <rect width="5.291" height=".756" x="32.544" y="26.086" fill="#000" stroke="#000" stroke-width=".756" rx=".378" transform="rotate(-15 32.544 26.086)"/>
    <g filter="url(#filter2_f)" opacity=".4">
        <ellipse cx="51.5" cy="83.5" fill="#0DD385" rx="12.5" ry="2.5"/>
    </g>
    <defs>
        <filter id="filter0_diiii" width="67.529" height="66.015" x="27.416" y="15.995" color-interpolation-filters="sRGB" filterUnits="userSpaceOnUse">
            <feFlood flood-opacity="0" result="BackgroundImageFix"/>
            <feColorMatrix in="SourceAlpha" values="0 0 0 0 0 0 0 0 0 0 0 0 0 0 0 0 0 0 127 0"/>
            <feOffset/>
            <feGaussianBlur stdDeviation="4"/>
            <feColorMatrix values="0 0 0 0 0 0 0 0 0 0 0 0 0 0 0 0 0 0 0.08 0"/>
            <feBlend in2="BackgroundImageFix" result="effect1_dropShadow"/>
            <feBlend in="SourceGraphic" in2="effect1_dropShadow" result="shape"/>
            <feColorMatrix in="SourceAlpha" result="hardAlpha" values="0 0 0 0 0 0 0 0 0 0 0 0 0 0 0 0 0 0 127 0"/>
            <feOffset dx="-4" dy="-4"/>
            <feGaussianBlur stdDeviation="8"/>
            <feComposite in2="hardAlpha" k2="-1" k3="1" operator="arithmetic"/>
            <feColorMatrix values="0 0 0 0 1 0 0 0 0 0.575667 0 0 0 0 0.441667 0 0 0 0.6 0"/>
            <feBlend in2="shape" result="effect2_innerShadow"/>
            <feColorMatrix in="SourceAlpha" result="hardAlpha" values="0 0 0 0 0 0 0 0 0 0 0 0 0 0 0 0 0 0 127 0"/>
            <feOffset dx="4" dy="4"/>
            <feGaussianBlur stdDeviation="12"/>
            <feComposite in2="hardAlpha" k2="-1" k3="1" operator="arithmetic"/>
            <feColorMatrix values="0 0 0 0 1 0 0 0 0 1 0 0 0 0 1 0 0 0 0.5 0"/>
            <feBlend in2="effect2_innerShadow" result="effect3_innerShadow"/>
            <feColorMatrix in="SourceAlpha" result="hardAlpha" values="0 0 0 0 0 0 0 0 0 0 0 0 0 0 0 0 0 0 127 0"/>
            <feOffset dx="2" dy="2"/>
            <feGaussianBlur stdDeviation="12"/>
            <feComposite in2="hardAlpha" k2="-1" k3="1" operator="arithmetic"/>
            <feColorMatrix values="0 0 0 0 1 0 0 0 0 1 0 0 0 0 1 0 0 0 0.8 0"/>
            <feBlend in2="effect3_innerShadow" result="effect4_innerShadow"/>
            <feColorMatrix in="SourceAlpha" result="hardAlpha" values="0 0 0 0 0 0 0 0 0 0 0 0 0 0 0 0 0 0 127 0"/>
            <feOffset dx="-4" dy="-8"/>
            <feGaussianBlur stdDeviation="4"/>
            <feComposite in2="hardAlpha" k2="-1" k3="1" operator="arithmetic"/>
            <feColorMatrix values="0 0 0 0 0 0 0 0 0 0 0 0 0 0 0 0 0 0 0.1 0"/>
            <feBlend in2="effect4_innerShadow" result="effect5_innerShadow"/>
        </filter>
        <filter id="filter1_diiii" width="60.585" height="63.952" x="5.359" y="7.425" color-interpolation-filters="sRGB" filterUnits="userSpaceOnUse">
            <feFlood flood-opacity="0" result="BackgroundImageFix"/>
            <feColorMatrix in="SourceAlpha" values="0 0 0 0 0 0 0 0 0 0 0 0 0 0 0 0 0 0 127 0"/>
            <feOffset/>
            <feGaussianBlur stdDeviation="4"/>
            <feColorMatrix values="0 0 0 0 0 0 0 0 0 0 0 0 0 0 0 0 0 0 0.08 0"/>
            <feBlend in2="BackgroundImageFix" result="effect1_dropShadow"/>
            <feBlend in="SourceGraphic" in2="effect1_dropShadow" result="shape"/>
            <feColorMatrix in="SourceAlpha" result="hardAlpha" values="0 0 0 0 0 0 0 0 0 0 0 0 0 0 0 0 0 0 127 0"/>
            <feOffset dx="-4" dy="-4"/>
            <feGaussianBlur stdDeviation="8"/>
            <feComposite in2="hardAlpha" k2="-1" k3="1" operator="arithmetic"/>
            <feColorMatrix values="0 0 0 0 1 0 0 0 0 0.575667 0 0 0 0 0.441667 0 0 0 0.4 0"/>
            <feBlend in2="shape" result="effect2_innerShadow"/>
            <feColorMatrix in="SourceAlpha" result="hardAlpha" values="0 0 0 0 0 0 0 0 0 0 0 0 0 0 0 0 0 0 127 0"/>
            <feOffset dx="4" dy="4"/>
            <feGaussianBlur stdDeviation="12"/>
            <feComposite in2="hardAlpha" k2="-1" k3="1" operator="arithmetic"/>
            <feColorMatrix values="0 0 0 0 1 0 0 0 0 1 0 0 0 0 1 0 0 0 0.5 0"/>
            <feBlend in2="effect2_innerShadow" result="effect3_innerShadow"/>
            <feColorMatrix in="SourceAlpha" result="hardAlpha" values="0 0 0 0 0 0 0 0 0 0 0 0 0 0 0 0 0 0 127 0"/>
            <feOffset dx="2" dy="2"/>
            <feGaussianBlur stdDeviation="12"/>
            <feComposite in2="hardAlpha" k2="-1" k3="1" operator="arithmetic"/>
            <feColorMatrix values="0 0 0 0 1 0 0 0 0 1 0 0 0 0 1 0 0 0 0.8 0"/>
            <feBlend in2="effect3_innerShadow" result="effect4_innerShadow"/>
            <feColorMatrix in="SourceAlpha" result="hardAlpha" values="0 0 0 0 0 0 0 0 0 0 0 0 0 0 0 0 0 0 127 0"/>
            <feOffset dx="-4" dy="-8"/>
            <feGaussianBlur stdDeviation="4"/>
            <feComposite in2="hardAlpha" k2="-1" k3="1" operator="arithmetic"/>
            <feColorMatrix values="0 0 0 0 0 0 0 0 0 0 0 0 0 0 0 0 0 0 0.1 0"/>
            <feBlend in2="effect4_innerShadow" result="effect5_innerShadow"/>
        </filter>
        <filter id="filter2_f" width="33" height="13" x="35" y="77" color-interpolation-filters="sRGB" filterUnits="userSpaceOnUse">
            <feFlood flood-opacity="0" result="BackgroundImageFix"/>
            <feBlend in="SourceGraphic" in2="BackgroundImageFix" result="shape"/>
            <feGaussianBlur result="effect1_foregroundBlur" stdDeviation="2"/>
        </filter>
        <linearGradient id="paint0_linear" x1="27.378" x2="91.015" y1="34.23" y2="28.471" gradientUnits="userSpaceOnUse">
            <stop stop-color="#13EB90"/>
            <stop offset="1" stop-color="#00BE90"/>
        </linearGradient>
        <linearGradient id="paint1_linear" x1="7" x2="63.375" y1="22.034" y2="21.086" gradientUnits="userSpaceOnUse">
            <stop stop-color="#13EB90"/>
            <stop offset="1" stop-color="#00BE90"/>
        </linearGradient>
    </defs>
</svg>
