<svg xmlns="http://www.w3.org/2000/svg" width="100" height="100" fill="none" viewBox="0 0 100 100">
    <rect width="100" height="100" fill="#FFEECE" rx="40"/>
    <g filter="url(#filter0_f)" opacity=".5">
        <ellipse cx="51.5" cy="85.5" fill="#EEC457" rx="12.5" ry="2.5"/>
    </g>
    <g filter="url(#filter1_diiii)">
        <path fill="url(#paint0_linear)" d="M86.283 49.055c-.984-6.722-8.925-15.888-19.326-16.985-10.402-1.097-29.683 4.03-24.183 24.614s28.591 22.304 37.82 11.352c4.985-5.918 6.704-12.05 5.69-18.981z"/>
        <path stroke="#fff" stroke-opacity=".5" stroke-width="2" d="M66.852 33.064c4.938.521 9.325 2.964 12.607 6.111 3.297 3.162 5.384 6.943 5.835 10.025.971 6.634-.655 12.482-5.466 18.191-8.722 10.352-30.803 8.815-36.088-10.965-1.334-4.994-1.143-8.962-.028-12.09 1.114-3.128 3.183-5.504 5.755-7.264 5.186-3.549 12.35-4.539 17.385-4.008z"/>
    </g>
    <circle cx="67.016" cy="54.574" r="4.015" fill="#fff"/>
    <circle cx="74.984" cy="54.572" r="4.015" fill="#fff"/>
    <circle cx="76.459" cy="54.572" r="1.506" fill="#000"/>
    <circle cx="68.49" cy="54.572" r="1.506" fill="#000"/>
    <rect width="5.27" height=".753" x="68.078" y="60.972" fill="#000" stroke="#000" stroke-width=".753" rx=".376"/>
    <path fill="#F0D8F7" d="M67.016 50.559c-2.218 0-4.016 1.797-4.016 4.015h8.03c0-2.218-1.797-4.015-4.014-4.015z"/>
    <path fill="#F0D8F7" d="M74.984 50.559c-2.217 0-4.015 1.797-4.015 4.015h8.03c0-2.218-1.797-4.015-4.014-4.015z"/>
    <g filter="url(#filter2_diiii)">
        <path fill="url(#paint1_linear)" fill-rule="evenodd" d="M48.292 10.007c10.014-.257 18.773 6.85 21.298 16.08 2.167 7.921-4.626 14.508-11.63 19.256C51.236 49.9 42.673 53.4 35.887 48.93c-7.157-4.714-8.16-13.906-5.632-21.835 2.722-8.543 8.663-16.848 18.036-17.088z" clip-rule="evenodd"/>
        <path stroke="#fff" stroke-opacity=".5" stroke-width="2" d="M48.318 11.006c9.523-.244 17.896 6.53 20.307 15.344.981 3.587-.038 6.907-2.225 9.975-2.202 3.087-5.537 5.842-9.002 8.19-3.308 2.243-7.013 4.185-10.676 5.032-3.645.844-7.182.591-10.284-1.452-6.618-4.36-7.692-12.971-5.23-20.696 2.688-8.434 8.406-16.17 17.11-16.393z"/>
    </g>
    <path fill="#fff" fill-rule="evenodd" d="M49.174 25.68c-.652 1.176-1.907 1.972-3.348 1.972-2.113 0-3.826-1.713-3.826-3.826S43.713 20 45.826 20c1.44 0 2.696.796 3.348 1.973.653-1.177 1.907-1.973 3.348-1.973 2.113 0 3.826 1.713 3.826 3.826s-1.713 3.826-3.826 3.826c-1.44 0-2.695-.796-3.348-1.972z" clip-rule="evenodd"/>
    <circle cx="52.522" cy="23.825" r="1.435" fill="#000"/>
    <circle cx="45.827" cy="23.825" r="1.435" fill="#000"/>
    <rect width="5.739" height="1.435" x="46.304" y="29.565" fill="#000" rx=".717"/>
    <g filter="url(#filter3_diiii)">
        <path fill="url(#paint2_linear)" fill-rule="evenodd" d="M32.432 34.009c11.661-.264 19.55 5.276 22.49 14.764 2.524 8.144.827 19.267-7.33 24.147-7.828 4.684-16.866 5.704-24.768 1.11-8.335-4.847-13.37-13.005-11.396-22.454 2.049-9.81 10.088-17.32 21.004-17.567z" clip-rule="evenodd"/>
        <path stroke="#fff" stroke-opacity=".5" stroke-width="2" d="M32.455 35.009c5.667-.129 10.342 1.154 13.937 3.556 3.588 2.399 6.166 5.957 7.575 10.504 1.209 3.902 1.407 8.53.326 12.753-1.078 4.216-3.412 7.965-7.215 10.24-7.594 4.544-16.236 5.473-23.752 1.103-8.071-4.693-12.781-12.47-10.92-21.385 1.96-9.385 9.629-16.535 20.049-16.771z"/>
    </g>
    <path fill="#fff" fill-rule="evenodd" d="M32.75 51.5c2.21 0 4-1.79 4-4s-1.79-4-4-4c-1.506 0-2.818.833-3.5 2.062-.683-1.23-1.994-2.061-3.5-2.061-2.21 0-4 1.79-4 4 0 2.209 1.79 4 4 4 1.506 0 2.818-.832 3.5-2.063.683 1.23 1.994 2.062 3.5 2.062z" clip-rule="evenodd"/>
    <circle cx="32.75" cy="47.5" r="1.5" fill="#000"/>
    <circle cx="25.75" cy="47.5" r="1.5" fill="#000"/>
    <rect width="5.25" height=".75" x="26.625" y="53.875" fill="#000" stroke="#000" stroke-width=".75" rx=".375"/>
    <rect width="5.25" height=".75" x="23.125" y="43.375" fill="#000" stroke="#000" stroke-width=".75" rx=".375"/>
    <rect width="5.25" height=".75" x="30.125" y="43.375" fill="#000" stroke="#000" stroke-width=".75" rx=".375"/>
    <defs>
        <filter id="filter0_f" width="33" height="13" x="35" y="79" color-interpolation-filters="sRGB" filterUnits="userSpaceOnUse">
            <feFlood flood-opacity="0" result="BackgroundImageFix"/>
            <feBlend in="SourceGraphic" in2="BackgroundImageFix" result="shape"/>
            <feGaussianBlur result="effect1_foregroundBlur" stdDeviation="2"/>
        </filter>
        <filter id="filter1_diiii" width="60.756" height="58.77" x="33.807" y="23.931" color-interpolation-filters="sRGB" filterUnits="userSpaceOnUse">
            <feFlood flood-opacity="0" result="BackgroundImageFix"/>
            <feColorMatrix in="SourceAlpha" values="0 0 0 0 0 0 0 0 0 0 0 0 0 0 0 0 0 0 127 0"/>
            <feOffset/>
            <feGaussianBlur stdDeviation="4"/>
            <feColorMatrix values="0 0 0 0 0 0 0 0 0 0 0 0 0 0 0 0 0 0 0.08 0"/>
            <feBlend in2="BackgroundImageFix" result="effect1_dropShadow"/>
            <feBlend in="SourceGraphic" in2="effect1_dropShadow" result="shape"/>
            <feColorMatrix in="SourceAlpha" result="hardAlpha" values="0 0 0 0 0 0 0 0 0 0 0 0 0 0 0 0 0 0 127 0"/>
            <feOffset dx="-8" dy="-8"/>
            <feGaussianBlur stdDeviation="16"/>
            <feComposite in2="hardAlpha" k2="-1" k3="1" operator="arithmetic"/>
            <feColorMatrix values="0 0 0 0 0.709163 0 0 0 0 0.709163 0 0 0 0 0.709163 0 0 0 0.5 0"/>
            <feBlend in2="shape" result="effect2_innerShadow"/>
            <feColorMatrix in="SourceAlpha" result="hardAlpha" values="0 0 0 0 0 0 0 0 0 0 0 0 0 0 0 0 0 0 127 0"/>
            <feOffset dx="-4" dy="-4"/>
            <feGaussianBlur stdDeviation="8"/>
            <feComposite in2="hardAlpha" k2="-1" k3="1" operator="arithmetic"/>
            <feColorMatrix values="0 0 0 0 1 0 0 0 0 0.441667 0 0 0 0 0.441667 0 0 0 1 0"/>
            <feBlend in2="effect2_innerShadow" result="effect3_innerShadow"/>
            <feColorMatrix in="SourceAlpha" result="hardAlpha" values="0 0 0 0 0 0 0 0 0 0 0 0 0 0 0 0 0 0 127 0"/>
            <feOffset dx="4" dy="4"/>
            <feGaussianBlur stdDeviation="12"/>
            <feComposite in2="hardAlpha" k2="-1" k3="1" operator="arithmetic"/>
            <feColorMatrix values="0 0 0 0 1 0 0 0 0 1 0 0 0 0 1 0 0 0 0.5 0"/>
            <feBlend in2="effect3_innerShadow" result="effect4_innerShadow"/>
            <feColorMatrix in="SourceAlpha" result="hardAlpha" values="0 0 0 0 0 0 0 0 0 0 0 0 0 0 0 0 0 0 127 0"/>
            <feOffset dx="2" dy="2"/>
            <feGaussianBlur stdDeviation="5"/>
            <feComposite in2="hardAlpha" k2="-1" k3="1" operator="arithmetic"/>
            <feColorMatrix values="0 0 0 0 1 0 0 0 0 1 0 0 0 0 1 0 0 0 0.8 0"/>
            <feBlend in2="effect4_innerShadow" result="effect5_innerShadow"/>
        </filter>
        <filter id="filter2_diiii" width="57" height="57" x="21" y="2" color-interpolation-filters="sRGB" filterUnits="userSpaceOnUse">
            <feFlood flood-opacity="0" result="BackgroundImageFix"/>
            <feColorMatrix in="SourceAlpha" values="0 0 0 0 0 0 0 0 0 0 0 0 0 0 0 0 0 0 127 0"/>
            <feOffset/>
            <feGaussianBlur stdDeviation="4"/>
            <feColorMatrix values="0 0 0 0 0 0 0 0 0 0 0 0 0 0 0 0 0 0 0.08 0"/>
            <feBlend in2="BackgroundImageFix" result="effect1_dropShadow"/>
            <feBlend in="SourceGraphic" in2="effect1_dropShadow" result="shape"/>
            <feColorMatrix in="SourceAlpha" result="hardAlpha" values="0 0 0 0 0 0 0 0 0 0 0 0 0 0 0 0 0 0 127 0"/>
            <feOffset dx="-8" dy="-8"/>
            <feGaussianBlur stdDeviation="16"/>
            <feComposite in2="hardAlpha" k2="-1" k3="1" operator="arithmetic"/>
            <feColorMatrix values="0 0 0 0 0.709163 0 0 0 0 0.709163 0 0 0 0 0.709163 0 0 0 0.5 0"/>
            <feBlend in2="shape" result="effect2_innerShadow"/>
            <feColorMatrix in="SourceAlpha" result="hardAlpha" values="0 0 0 0 0 0 0 0 0 0 0 0 0 0 0 0 0 0 127 0"/>
            <feOffset dx="-4" dy="-4"/>
            <feGaussianBlur stdDeviation="8"/>
            <feComposite in2="hardAlpha" k2="-1" k3="1" operator="arithmetic"/>
            <feColorMatrix values="0 0 0 0 1 0 0 0 0 0.441667 0 0 0 0 0.441667 0 0 0 1 0"/>
            <feBlend in2="effect2_innerShadow" result="effect3_innerShadow"/>
            <feColorMatrix in="SourceAlpha" result="hardAlpha" values="0 0 0 0 0 0 0 0 0 0 0 0 0 0 0 0 0 0 127 0"/>
            <feOffset dx="4" dy="4"/>
            <feGaussianBlur stdDeviation="12"/>
            <feComposite in2="hardAlpha" k2="-1" k3="1" operator="arithmetic"/>
            <feColorMatrix values="0 0 0 0 1 0 0 0 0 1 0 0 0 0 1 0 0 0 0.5 0"/>
            <feBlend in2="effect3_innerShadow" result="effect4_innerShadow"/>
            <feColorMatrix in="SourceAlpha" result="hardAlpha" values="0 0 0 0 0 0 0 0 0 0 0 0 0 0 0 0 0 0 127 0"/>
            <feOffset dx="2" dy="2"/>
            <feGaussianBlur stdDeviation="5"/>
            <feComposite in2="hardAlpha" k2="-1" k3="1" operator="arithmetic"/>
            <feColorMatrix values="0 0 0 0 1 0 0 0 0 1 0 0 0 0 1 0 0 0 0.8 0"/>
            <feBlend in2="effect4_innerShadow" result="effect5_innerShadow"/>
        </filter>
        <filter id="filter3_diiii" width="61" height="59" x="3" y="26" color-interpolation-filters="sRGB" filterUnits="userSpaceOnUse">
            <feFlood flood-opacity="0" result="BackgroundImageFix"/>
            <feColorMatrix in="SourceAlpha" values="0 0 0 0 0 0 0 0 0 0 0 0 0 0 0 0 0 0 127 0"/>
            <feOffset/>
            <feGaussianBlur stdDeviation="4"/>
            <feColorMatrix values="0 0 0 0 0 0 0 0 0 0 0 0 0 0 0 0 0 0 0.08 0"/>
            <feBlend in2="BackgroundImageFix" result="effect1_dropShadow"/>
            <feBlend in="SourceGraphic" in2="effect1_dropShadow" result="shape"/>
            <feColorMatrix in="SourceAlpha" result="hardAlpha" values="0 0 0 0 0 0 0 0 0 0 0 0 0 0 0 0 0 0 127 0"/>
            <feOffset dx="-8" dy="-8"/>
            <feGaussianBlur stdDeviation="16"/>
            <feComposite in2="hardAlpha" k2="-1" k3="1" operator="arithmetic"/>
            <feColorMatrix values="0 0 0 0 0.709163 0 0 0 0 0.709163 0 0 0 0 0.709163 0 0 0 0.5 0"/>
            <feBlend in2="shape" result="effect2_innerShadow"/>
            <feColorMatrix in="SourceAlpha" result="hardAlpha" values="0 0 0 0 0 0 0 0 0 0 0 0 0 0 0 0 0 0 127 0"/>
            <feOffset dx="-4" dy="-4"/>
            <feGaussianBlur stdDeviation="8"/>
            <feComposite in2="hardAlpha" k2="-1" k3="1" operator="arithmetic"/>
            <feColorMatrix values="0 0 0 0 1 0 0 0 0 0.441667 0 0 0 0 0.441667 0 0 0 1 0"/>
            <feBlend in2="effect2_innerShadow" result="effect3_innerShadow"/>
            <feColorMatrix in="SourceAlpha" result="hardAlpha" values="0 0 0 0 0 0 0 0 0 0 0 0 0 0 0 0 0 0 127 0"/>
            <feOffset dx="4" dy="4"/>
            <feGaussianBlur stdDeviation="12"/>
            <feComposite in2="hardAlpha" k2="-1" k3="1" operator="arithmetic"/>
            <feColorMatrix values="0 0 0 0 1 0 0 0 0 1 0 0 0 0 1 0 0 0 0.5 0"/>
            <feBlend in2="effect3_innerShadow" result="effect4_innerShadow"/>
            <feColorMatrix in="SourceAlpha" result="hardAlpha" values="0 0 0 0 0 0 0 0 0 0 0 0 0 0 0 0 0 0 127 0"/>
            <feOffset dx="2" dy="2"/>
            <feGaussianBlur stdDeviation="5"/>
            <feComposite in2="hardAlpha" k2="-1" k3="1" operator="arithmetic"/>
            <feColorMatrix values="0 0 0 0 1 0 0 0 0 1 0 0 0 0 1 0 0 0 0.8 0"/>
            <feBlend in2="effect4_innerShadow" result="effect5_innerShadow"/>
        </filter>
        <linearGradient id="paint0_linear" x1="36.584" x2="89.479" y1="40.017" y2="34.53" gradientUnits="userSpaceOnUse">
            <stop stop-color="#FFF508"/>
            <stop offset="1" stop-color="#FFC83C"/>
        </linearGradient>
        <linearGradient id="paint1_linear" x1="29" x2="77.235" y1="10" y2="22.059" gradientUnits="userSpaceOnUse">
            <stop stop-color="#FFF508"/>
            <stop offset="1" stop-color="#FFC83C"/>
        </linearGradient>
        <linearGradient id="paint2_linear" x1="11" x2="63.646" y1="34" y2="47.774" gradientUnits="userSpaceOnUse">
            <stop stop-color="#FFF508"/>
            <stop offset="1" stop-color="#FFC83C"/>
        </linearGradient>
    </defs>
</svg>
